<!DOCTYPE svg PUBLIC "-//W3C//DTD SVG 20010904//EN" "http://www.w3.org/TR/2001/REC-SVG-20010904/DTD/svg10.dtd">
<svg version="1.0" xmlns="http://www.w3.org/2000/svg" width="1600px" height="413px" viewBox="0 0 16000 4130" preserveAspectRatio="xMidYMid meet">
<g id="layer101" fill="#fafafa" stroke="none">
 <path d="M9213 3505 c-15 -17 -17 -105 -3 -105 6 0 10 -16 10 -35 0 -24 5 -35 15 -35 10 0 15 -11 15 -35 0 -19 5 -35 10 -35 6 0 10 -9 10 -20 0 -11 5 -20 10 -20 6 0 10 -16 10 -35 0 -19 5 -35 10 -35 6 0 10 -16 10 -35 0 -24 5 -35 15 -35 10 0 15 -11 15 -35 0 -19 5 -35 10 -35 6 0 10 -11 10 -25 0 -14 5 -25 10 -25 6 0 10 -14 10 -30 0 -18 6 -33 15 -36 9 -4 15 -19 15 -40 0 -19 5 -34 10 -34 6 0 10 -11 10 -25 0 -14 5 -25 10 -25 6 0 10 -14 10 -30 0 -18 6 -33 15 -36 9 -4 15 -19 15 -40 0 -19 5 -34 10 -34 6 0 10 -13 10 -29 0 -17 5 -33 10 -36 6 -3 10 -15 10 -26 0 -10 7 -19 15 -19 10 0 15 -11 15 -35 0 -19 5 -35 10 -35 6 0 10 -16 10 -35 0 -19 5 -35 10 -35 6 0 10 -9 10 -19 0 -11 5 -23 10 -26 6 -3 10 -17 10 -29 0 -13 7 -29 15 -36 8 -7 15 -25 15 -41 0 -15 5 -31 10 -34 6 -3 10 -19 10 -36 0 -16 5 -29 10 -29 6 0 10 -9 10 -20 0 -11 7 -23 15 -26 9 -4 15 -19 15 -40 0 -19 5 -34 10 -34 6 0 10 -16 10 -35 0 -19 5 -35 10 -35 6 0 10 -9 10 -19 0 -10 7 -21 15 -25 9 -3 15 -18 15 -36 0 -16 5 -30 10 -30 6 0 10 -16 10 -35 0 -19 5 -35 10 -35 6 0 10 -16 10 -35 0 -24 5 -35 15 -35 9 0 15 -9 15 -25 0 -14 5 -25 10 -25 6 0 10 -16 10 -35 0 -19 5 -35 10 -35 6 0 10 -9 10 -19 0 -11 5 -23 10 -26 6 -3 10 -20 10 -36 0 -17 6 -32 15 -35 8 -4 15 -14 15 -24 0 -11 5 -22 10 -25 6 -3 10 -19 10 -36 0 -16 5 -29 10 -29 6 0 10 -14 10 -30 0 -18 6 -33 15 -36 9 -4 15 -19 15 -40 0 -19 5 -34 10 -34 6 0 10 -20 10 -44 0 -25 5 -48 10 -51 6 -3 10 -24 10 -46 0 -26 5 -42 15 -45 9 -4 15 -19 15 -40 0 -19 5 -34 10 -34 6 0 10 -9 10 -20 0 -11 5 -20 10 -20 6 0 10 -16 10 -35 0 -24 5 -35 15 -35 9 0 15 -9 15 -25 0 -14 5 -25 10 -25 6 0 10 -9 10 -20 0 -11 7 -20 15 -20 10 0 15 -11 15 -35 0 -19 5 -35 10 -35 6 0 10 -5 10 -11 0 -6 6 -17 14 -25 22 -21 990 -21 1012 0 8 8 14 19 14 25 0 6 5 11 11 11 20 0 39 29 39 59 0 17 5 31 10 31 6 0 10 15 10 34 0 21 6 36 15 40 10 3 15 19 15 46 0 22 5 40 10 40 6 0 10 16 10 35 0 19 5 35 10 35 6 0 10 16 10 35 0 19 5 35 10 35 6 0 10 9 10 19 0 10 7 21 15 25 9 3 15 18 15 35 0 16 5 33 10 36 6 3 10 19 10 36 0 16 5 29 10 29 6 0 10 11 10 24 0 13 7 26 15 30 9 3 15 18 15 36 0 16 5 30 10 30 6 0 10 16 10 35 0 19 5 35 10 35 6 0 10 9 10 19 0 10 7 21 15 25 9 3 15 18 15 35 0 16 5 33 10 36 6 3 10 19 10 36 0 16 5 29 10 29 6 0 10 11 10 24 0 13 7 26 15 30 9 3 15 18 15 36 0 16 5 30 10 30 6 0 10 16 10 35 0 19 5 35 10 35 6 0 10 11 10 25 0 14 5 25 10 25 6 0 10 16 10 35 0 24 5 35 15 35 10 0 15 11 15 35 0 19 5 35 10 35 6 0 10 9 10 20 0 11 5 20 10 20 6 0 10 15 10 34 0 21 6 36 15 40 9 3 15 18 15 36 0 16 5 30 10 30 6 0 10 16 10 35 0 19 5 35 10 35 6 0 10 11 10 25 0 16 6 25 15 25 10 0 15 11 15 35 0 19 5 35 10 35 6 0 10 16 10 35 0 19 5 35 10 35 6 0 10 9 10 19 0 10 7 21 15 25 9 3 15 18 15 35 0 16 5 33 10 36 6 3 10 15 10 26 0 10 5 19 10 19 6 0 10 9 10 20 0 11 5 20 10 20 6 0 10 11 10 25 0 16 6 25 15 25 9 0 15 9 15 24 0 13 7 26 15 30 9 3 15 18 15 36 0 16 5 30 10 30 6 0 10 16 10 35 0 19 5 35 10 35 6 0 10 11 10 25 0 16 6 25 15 25 10 0 15 11 15 35 0 19 5 35 10 35 6 0 10 13 10 29 0 17 5 33 10 36 6 3 10 19 10 36 0 16 5 29 10 29 6 0 10 11 10 24 0 13 7 26 15 30 8 3 15 15 15 26 0 11 5 20 10 20 6 0 10 16 10 35 0 19 5 35 10 35 6 0 10 20 10 45 0 34 4 45 15 45 13 0 15 12 13 68 l-3 67 -469 3 c-307 1 -473 -1 -480 -8 -5 -5 -16 -10 -24 -10 -8 0 -28 -13 -43 -30 -23 -24 -29 -39 -29 -74 0 -30 -5 -46 -15 -50 -10 -3 -15 -19 -15 -46 0 -22 -4 -40 -10 -40 -5 0 -10 -16 -10 -35 0 -19 -4 -35 -10 -35 -5 0 -10 -18 -10 -40 0 -32 -6 -47 -30 -70 l-31 -30 -409 0 c-358 0 -410 2 -410 15 0 8 -4 15 -10 15 -5 0 -10 9 -10 20 0 11 -4 20 -10 20 -5 0 -10 25 -10 55 0 40 -4 57 -15 61 -9 4 -15 19 -15 40 0 19 -4 34 -10 34 -5 0 -10 20 -10 45 0 25 -4 45 -10 45 -5 0 -10 15 -10 34 0 21 -6 36 -15 40 -8 3 -15 15 -15 26 0 20 -4 20 -472 20 -396 -1 -475 -3 -485 -15z m287 -95 c0 -5 -16 -10 -35 -10 -29 0 -35 -4 -35 -21 0 -29 -24 -49 -59 -49 -30 0 -31 1 -31 45 l0 45 80 0 c47 0 80 -4 80 -10z m186 1 c5 -5 23 -11 41 -13 l32 -3 -28 -32 c-21 -24 -37 -33 -60 -33 -17 0 -31 5 -31 10 0 6 -6 10 -14 10 -10 0 -12 7 -8 22 11 42 44 61 68 39z m324 -1 c0 -5 -12 -10 -26 -10 -14 0 -23 4 -19 10 3 6 15 10 26 10 10 0 19 -4 19 -10z m1550 0 c0 -5 -5 -10 -11 -10 -7 0 -9 -10 -7 -25 5 -22 2 -25 -23 -25 -22 0 -29 -5 -29 -20 0 -15 -7 -20 -29 -20 -16 0 -31 -6 -35 -15 -3 -8 -10 -15 -16 -15 -5 0 -10 7 -10 15 0 8 -4 15 -10 15 -5 0 -10 5 -10 10 0 6 9 10 20 10 15 0 20 7 20 25 0 16 6 25 15 25 8 0 15 5 15 10 0 6 20 10 45 10 25 0 45 5 45 10 0 6 5 10 10 10 6 0 10 -4 10 -10z m286 -4 c8 -8 14 -21 14 -28 0 -17 35 -48 55 -48 10 0 15 11 15 35 0 24 5 35 15 35 10 0 15 -11 15 -35 0 -19 5 -35 10 -35 6 0 10 -20 10 -45 0 -45 0 -45 35 -45 35 0 35 0 35 44 0 40 3 45 35 60 28 14 35 23 35 46 0 34 5 36 26 16 16 -17 19 -56 4 -56 -5 0 -10 -9 -10 -20 0 -11 -4 -20 -10 -20 -5 0 -10 -11 -10 -25 0 -19 -5 -25 -21 -25 -11 0 -27 -6 -35 -14 -16 -17 -19 -56 -4 -56 6 0 10 -20 10 -45 0 -25 -4 -45 -10 -45 -5 0 -10 -15 -10 -34 0 -21 -6 -36 -15 -40 -8 -3 -15 -17 -15 -31 0 -35 -22 -55 -58 -55 -17 0 -32 -4 -34 -10 -2 -5 -48 -11 -103 -12 -97 -3 -100 -4 -99 -25 0 -13 -5 -23 -13 -23 -7 0 -13 11 -13 25 0 23 -4 25 -40 25 -27 0 -43 -5 -46 -15 -10 -26 -32 -18 -26 10 2 14 8 25 13 25 5 0 9 11 9 25 0 14 5 25 10 25 6 0 10 9 10 19 0 10 7 21 15 25 8 3 15 15 15 26 0 11 5 20 10 20 6 0 10 9 10 20 0 11 5 20 10 20 6 0 10 22 10 49 l0 49 -55 1 c-52 0 -55 -1 -55 -24 0 -18 5 -25 20 -25 11 0 20 -4 20 -10 0 -5 -4 -10 -10 -10 -5 0 -10 -9 -10 -21 0 -29 -24 -49 -59 -49 -26 0 -31 -4 -31 -25 0 -20 -5 -25 -24 -25 -13 0 -27 -6 -30 -12 -5 -10 -7 -10 -12 0 -4 8 -29 12 -75 12 l-69 0 0 35 c0 19 5 35 10 35 6 0 10 11 10 25 0 14 3 25 8 25 17 0 62 49 62 69 0 21 8 25 43 22 19 -2 47 21 47 38 0 6 16 11 35 11 28 0 35 4 35 20 0 16 7 20 35 20 28 0 35 -4 35 -20 0 -14 7 -20 24 -20 13 0 26 5 28 11 2 6 14 9 28 7 22 -3 23 -4 7 -20 -29 -28 -21 -48 18 -48 33 0 35 2 35 35 0 19 -4 35 -10 35 -5 0 -10 9 -10 20 0 11 5 20 10 20 6 0 10 -9 10 -20 0 -24 34 -27 56 -6 16 17 19 56 4 56 -5 0 -10 9 -10 20 0 24 6 25 26 6z m-1746 -95 c0 -11 6 -22 13 -24 6 -3 -5 -6 -25 -6 -35 -1 -38 -3 -38 -31 0 -20 5 -30 15 -30 10 0 15 -10 15 -34 0 -21 -6 -36 -15 -40 -22 -8 -18 -31 10 -52 14 -10 25 -29 25 -41 0 -22 -4 -23 -69 -23 -46 0 -71 -4 -75 -12 -5 -10 -7 -10 -12 0 -3 6 -14 12 -25 12 -19 0 -24 16 -19 68 1 19 -3 22 -38 22 l-40 0 -1 -55 c0 -42 3 -55 14 -55 8 0 15 -7 15 -15 0 -12 -13 -15 -55 -15 -49 0 -55 2 -55 20 0 11 -7 23 -15 26 -8 4 -15 17 -15 30 0 17 -6 24 -19 24 -11 0 -23 5 -26 10 -10 16 -41 11 -60 -10 -21 -23 -13 -50 15 -50 11 0 20 -4 20 -10 0 -5 8 -10 19 -10 12 0 20 -9 23 -25 5 -24 3 -25 -43 -25 -27 0 -49 -4 -49 -10 0 -5 -9 -10 -20 -10 -11 0 -20 -4 -20 -10 0 -5 -11 -10 -25 -10 -18 0 -25 5 -25 20 0 11 5 20 10 20 6 0 10 5 10 11 0 7 7 17 17 24 25 19 6 35 -43 35 l-44 0 0 45 c0 25 -4 45 -10 45 -5 0 -10 7 -10 15 0 8 -4 15 -10 15 -5 0 -10 9 -10 20 0 11 -7 20 -15 20 -9 0 -15 9 -15 25 0 22 4 25 35 25 19 0 35 5 35 10 0 6 16 10 35 10 24 0 35 5 35 15 0 9 9 15 25 15 14 0 25 -5 25 -11 0 -22 30 -39 69 -39 23 0 41 -4 41 -10 0 -5 15 -10 34 -10 21 0 36 -6 40 -15 8 -22 59 -19 79 5 9 11 17 34 17 50 0 25 4 30 25 30 14 0 25 5 25 10 0 6 25 10 55 10 30 0 55 5 55 10 0 6 20 10 45 10 38 0 45 -3 45 -19z m50 -106 c0 -8 -4 -15 -9 -15 -5 0 -11 7 -15 15 -3 9 0 15 9 15 8 0 15 -7 15 -15z m1370 -256 c0 -5 -7 -9 -15 -9 -8 0 -15 7 -15 15 0 9 6 12 15 9 8 -4 15 -10 15 -15z m-1300 1 c0 -6 -27 -10 -60 -10 -33 0 -60 -4 -60 -10 0 -6 -28 -10 -65 -10 -49 0 -67 -4 -71 -15 -5 -11 -22 -15 -65 -15 -48 0 -57 3 -53 15 4 10 20 15 50 15 24 0 44 5 44 10 0 6 20 10 44 10 25 0 48 5 51 10 3 6 46 10 96 10 53 0 89 -4 89 -10z m956 -4 c8 -8 14 -17 14 -20 0 -10 -39 -6 -45 4 -11 17 -37 11 -61 -16 l-24 -25 0 25 c0 19 5 26 20 26 11 0 20 5 20 10 0 15 60 12 76 -4z m-426 -86 c0 -47 -4 -80 -10 -80 -5 0 -10 -7 -10 -15 0 -11 -12 -15 -45 -15 -25 0 -45 -4 -45 -10 0 -5 -7 -10 -15 -10 -8 0 -15 5 -15 10 0 6 5 10 10 10 6 0 10 30 10 70 0 56 3 70 15 70 8 0 15 7 15 15 0 10 11 15 35 15 19 0 35 5 35 10 0 6 5 10 10 10 6 0 10 -33 10 -80z m720 70 c0 -5 -4 -10 -10 -10 -5 0 -10 -9 -10 -21 0 -12 -11 -30 -25 -41 -14 -11 -25 -28 -25 -39 0 -16 -7 -19 -44 -19 -25 0 -48 -4 -51 -10 -3 -5 -35 -10 -71 -10 l-64 0 0 35 c0 31 3 35 25 35 14 0 25 5 25 10 0 6 5 10 12 10 6 0 4 -7 -5 -18 -34 -37 -7 -73 44 -57 17 6 20 14 17 48 l-3 42 43 3 c26 2 45 9 49 18 3 8 19 14 39 14 19 0 34 5 34 10 0 6 5 10 10 10 6 0 10 -4 10 -10z m-1650 -50 c0 -5 -13 -10 -30 -10 -16 0 -30 5 -30 10 0 6 14 10 30 10 17 0 30 -4 30 -10z m750 -25 c0 -24 -5 -35 -15 -35 -11 0 -15 -11 -15 -43 0 -31 -5 -46 -20 -57 -11 -8 -20 -20 -20 -27 0 -9 -18 -13 -60 -13 -33 0 -60 -4 -60 -10 0 -5 -25 -10 -55 -10 -30 0 -55 -4 -55 -10 0 -5 -33 -10 -72 -12 -67 -3 -73 -5 -76 -25 -3 -22 -1 -23 82 -23 l86 0 0 -36 c0 -31 3 -35 23 -32 19 3 22 9 22 46 0 41 1 42 32 42 17 0 35 -4 38 -10 3 -5 15 -10 26 -10 10 0 19 5 19 10 0 6 11 10 25 10 46 0 19 -59 -27 -60 -10 0 -18 -7 -18 -15 0 -10 -11 -15 -35 -15 -35 0 -35 0 -35 -45 0 -25 5 -45 10 -45 6 0 10 -20 10 -45 l0 -45 -55 0 -55 0 0 -35 c0 -31 -3 -35 -25 -35 -14 0 -25 -4 -25 -10 0 -5 -20 -10 -45 -10 -31 0 -47 -5 -51 -15 -5 -12 -28 -15 -115 -15 -88 0 -111 -3 -115 -15 -4 -8 -15 -15 -25 -15 -10 0 -19 7 -19 15 0 11 -12 15 -45 15 l-45 0 0 44 c0 36 -5 49 -25 64 -19 15 -25 29 -25 61 0 23 -4 41 -10 41 -5 0 -10 9 -10 20 0 11 7 20 15 20 9 0 31 16 49 35 19 19 41 35 50 35 8 0 18 5 21 10 3 6 18 10 33 10 35 0 62 31 62 70 0 17 5 30 10 30 6 0 10 11 10 25 0 14 -4 25 -10 25 -5 0 -10 5 -10 10 0 6 24 10 54 10 30 0 58 5 61 10 3 6 17 10 31 10 32 0 84 47 84 77 0 21 4 23 59 23 38 0 61 5 65 13 5 10 7 10 12 0 7 -15 40 -17 49 -3 3 6 42 10 86 10 46 0 79 4 79 10 0 6 16 10 35 10 33 0 35 -2 35 -35z m1390 5 c0 -5 -7 -10 -15 -10 -8 0 -15 5 -15 10 0 6 7 10 15 10 8 0 15 -4 15 -10z m-1050 -25 c0 -8 -4 -15 -10 -15 -5 0 -10 7 -10 15 0 8 5 15 10 15 6 0 10 -7 10 -15z m980 0 c0 -8 -7 -15 -15 -15 -8 0 -15 7 -15 15 0 8 7 15 15 15 8 0 15 -7 15 -15z m-50 -25 c0 -5 -9 -10 -19 -10 -11 0 -23 -4 -26 -10 -3 -5 -20 -10 -36 -10 -17 0 -32 -6 -35 -15 -4 -9 -19 -15 -35 -15 -16 0 -29 -4 -29 -10 0 -5 -7 -10 -15 -10 -8 0 -15 5 -15 10 0 6 -9 10 -20 10 -13 0 -20 -7 -20 -20 0 -16 -7 -20 -35 -20 -28 0 -35 4 -35 20 0 13 7 20 20 20 11 0 20 5 20 10 0 6 24 10 54 10 30 0 58 5 61 10 3 6 29 10 56 10 35 0 51 4 55 15 7 17 54 21 54 5z m-759 -39 c-30 -30 -39 -26 -11 4 13 14 25 23 28 21 2 -2 -6 -14 -17 -25z m269 -51 c0 -5 -4 -10 -10 -10 -5 0 -10 -11 -10 -25 0 -22 -4 -25 -35 -25 -33 0 -35 -2 -35 -34 0 -19 6 -36 13 -39 8 -3 6 -10 -9 -23 -22 -21 -54 -79 -54 -101 0 -7 -4 -13 -10 -13 -5 0 -10 -9 -10 -20 0 -11 -4 -20 -10 -20 -5 0 -10 -7 -10 -15 0 -9 -9 -15 -25 -15 -14 0 -25 6 -25 13 0 7 -9 19 -20 27 -21 15 -27 45 -10 55 6 3 10 15 10 26 0 10 5 19 10 19 6 0 10 30 10 70 0 44 4 70 11 70 6 0 18 9 27 20 14 17 29 21 90 21 53 1 75 5 79 15 6 16 23 19 23 4z m-1530 -25 c0 -11 -49 -55 -62 -55 -7 0 -33 -20 -57 -45 -49 -50 -61 -55 -61 -25 0 11 -4 20 -10 20 -5 0 -10 20 -10 45 l0 45 90 0 c53 0 90 4 90 10 0 6 5 10 10 10 6 0 10 -2 10 -5z m1683 -60 c-27 -21 -33 -18 -33 14 0 23 5 30 23 33 29 4 36 -28 10 -47z m-453 25 c0 -17 -7 -20 -39 -20 -22 0 -43 -4 -46 -10 -3 -5 -11 -10 -18 -10 -8 0 -8 3 1 12 7 7 12 20 12 30 0 15 8 18 45 18 38 0 45 -3 45 -20z m810 0 c0 -10 8 -24 18 -29 13 -8 8 -10 -28 -11 -34 0 -49 -5 -65 -24 -11 -13 -29 -25 -40 -27 -26 -5 -32 -51 -9 -69 14 -12 18 -12 30 5 8 10 17 16 20 12 11 -11 -24 -37 -51 -37 -14 0 -28 -7 -31 -15 -4 -10 -20 -15 -50 -15 -24 0 -44 -4 -44 -10 0 -5 -20 -10 -45 -10 -25 0 -45 -4 -45 -10 0 -5 -20 -10 -44 -10 -30 0 -46 -5 -50 -15 -3 -9 -18 -15 -39 -15 -32 0 -33 1 -29 32 3 18 13 47 23 66 11 18 19 39 19 47 0 8 5 15 10 15 6 0 10 11 10 25 0 16 6 25 15 25 9 0 15 -9 15 -25 0 -21 5 -25 29 -25 17 0 33 5 36 10 3 6 20 10 36 10 17 0 32 6 35 15 4 8 15 15 25 15 10 0 19 5 19 10 0 6 16 10 35 10 19 0 35 5 35 10 0 6 14 10 30 10 18 0 33 6 36 15 4 8 17 15 30 15 13 0 24 5 24 10 0 6 9 10 20 10 13 0 20 -7 20 -20z m-1250 -70 c0 -13 -7 -20 -20 -20 -23 0 -25 5 -7 25 17 20 27 18 27 -5z m395 -80 c4 -6 -8 -10 -29 -10 -20 0 -36 5 -36 10 0 6 13 10 29 10 17 0 33 -4 36 -10z m-45 -169 c0 -10 -7 -24 -15 -31 -8 -7 -15 -23 -15 -36 0 -12 -4 -26 -10 -29 -5 -3 -10 -26 -10 -51 0 -24 -4 -44 -10 -44 -5 0 -10 -16 -10 -35 0 -19 -4 -35 -10 -35 -5 0 -10 -15 -10 -34 0 -21 -6 -36 -15 -40 -10 -3 -15 -19 -15 -45 0 -22 -4 -43 -10 -46 -5 -3 -10 -19 -10 -36 0 -16 -4 -29 -10 -29 -5 0 -10 -16 -10 -35 0 -24 -5 -35 -15 -35 -11 0 -15 -12 -15 -45 0 -25 -4 -45 -10 -45 -5 0 -10 -16 -10 -35 0 -19 -4 -35 -10 -35 -5 0 -10 14 -10 30 0 18 -6 33 -15 36 -9 4 -15 19 -15 40 0 19 -4 34 -10 34 -5 0 -10 13 -10 29 0 17 -4 33 -10 36 -5 3 -10 26 -10 51 0 32 -4 44 -15 44 -10 0 -15 11 -15 35 0 19 -4 35 -10 35 -5 0 -10 20 -10 45 0 25 -4 45 -10 45 -5 0 -10 16 -10 35 0 19 -4 35 -10 35 -5 0 -10 18 -10 39 0 22 -7 46 -15 55 -8 8 -15 28 -15 45 0 18 -5 31 -12 32 -10 0 -10 2 0 6 6 2 12 11 12 19 0 12 35 14 210 14 199 0 210 -1 210 -19z m500 -171 c15 -21 80 -29 80 -10 0 6 16 10 35 10 19 0 35 -3 35 -6 0 -10 -28 -34 -41 -34 -7 0 -38 -27 -71 -60 -32 -34 -67 -60 -78 -60 -11 0 -20 -4 -20 -10 0 -5 -8 -10 -19 -10 -10 0 -27 -11 -37 -25 -13 -18 -28 -25 -51 -25 -31 0 -33 -2 -33 -35 0 -32 2 -35 30 -35 20 0 39 9 54 25 13 14 30 25 39 25 8 0 17 6 20 13 4 10 7 10 18 0 7 -7 36 -13 65 -13 32 0 55 5 58 13 5 10 7 10 12 0 3 -7 12 -13 19 -13 17 0 23 -17 17 -47 -4 -22 -32 -33 -32 -13 0 6 -16 10 -35 10 -28 0 -35 -4 -35 -20 0 -11 7 -20 15 -20 8 0 15 -7 15 -15 0 -8 -7 -15 -15 -15 -8 0 -15 -4 -15 -10 0 -5 -13 -10 -29 -10 -17 0 -33 -4 -36 -10 -3 -5 -14 -10 -23 -10 -10 0 -31 -16 -47 -35 -39 -45 -63 -46 -67 -2 -3 29 -6 32 -38 32 -32 0 -35 -3 -38 -32 -3 -30 -1 -33 22 -33 16 0 26 -6 26 -15 0 -9 -9 -15 -25 -15 -14 0 -25 -4 -25 -10 0 -5 -16 -10 -35 -10 -19 0 -35 -4 -35 -10 0 -5 -18 -10 -40 -10 -27 0 -43 -5 -46 -15 -9 -24 -24 -17 -24 10 0 22 4 25 35 25 35 0 35 0 35 45 0 25 5 45 10 45 6 0 10 7 10 15 0 8 7 15 15 15 8 0 15 5 15 10 0 6 9 10 20 10 11 0 20 5 20 10 0 6 8 10 18 10 20 0 52 33 52 55 0 10 -11 15 -35 15 -19 0 -35 -4 -35 -10 0 -5 -8 -10 -17 -10 -9 0 -25 -7 -35 -17 -17 -15 -18 -15 -18 5 0 12 22 42 50 70 52 52 60 69 35 78 -8 4 -15 14 -15 24 0 10 7 20 15 24 8 3 15 15 15 26 0 11 5 20 10 20 6 0 10 11 10 25 0 14 5 25 10 25 6 0 10 9 10 20 0 18 7 20 70 20 40 0 70 4 70 10 0 18 45 10 60 -10z m-397 -17 c-7 -3 -13 -16 -13 -29 0 -13 -4 -24 -10 -24 -5 0 -10 -9 -10 -20 0 -11 -4 -20 -10 -20 -5 0 -10 14 -10 31 0 22 8 39 27 55 15 13 30 21 33 17 3 -3 -1 -8 -7 -10z m-593 -83 c0 -5 7 -10 15 -10 10 0 15 -11 15 -35 0 -19 5 -35 10 -35 6 0 10 -27 10 -60 0 -33 4 -60 10 -60 6 0 10 -9 10 -20 0 -11 7 -20 15 -20 8 0 15 -7 15 -15 0 -11 -12 -15 -50 -15 -27 0 -50 -4 -50 -10 0 -5 -9 -10 -20 -10 -16 0 -20 -7 -20 -31 0 -35 20 -59 49 -59 12 0 21 -5 21 -11 0 -20 29 -39 59 -39 17 0 31 5 31 10 0 6 5 10 10 10 6 0 10 -20 10 -45 0 -25 -4 -45 -10 -45 -5 0 -10 -9 -10 -20 0 -11 -4 -20 -10 -20 -5 0 -10 -7 -10 -15 0 -9 -9 -15 -21 -15 -20 0 -49 -21 -49 -37 0 -4 -21 -8 -47 -8 -45 0 -48 -2 -48 -25 0 -21 5 -26 31 -28 22 -2 34 -9 37 -23 4 -14 14 -19 36 -19 26 0 31 4 31 25 0 18 -5 25 -20 25 -11 0 -20 5 -20 10 0 6 13 10 28 10 16 0 37 9 47 20 10 11 26 20 36 20 15 0 19 10 22 53 l3 52 2 -56 c2 -43 -2 -58 -13 -63 -8 -3 -15 -15 -15 -26 0 -11 -4 -20 -10 -20 -5 0 -10 -16 -10 -35 0 -19 -4 -35 -10 -35 -5 0 -10 -11 -10 -25 0 -15 -6 -25 -14 -25 -11 0 -15 -12 -14 -42 0 -23 -5 -44 -11 -46 -17 -6 -13 -83 6 -104 24 -27 67 -23 83 7 11 21 15 23 22 10 11 -19 47 -20 54 0 4 8 15 15 26 15 25 0 48 23 48 49 0 12 6 21 15 21 8 0 15 5 15 10 0 6 5 10 10 10 6 0 10 -9 10 -20 0 -11 -4 -20 -10 -20 -6 0 -10 -35 -10 -85 0 -75 2 -85 18 -85 28 0 52 36 52 80 0 22 5 40 10 40 6 0 10 24 10 54 0 39 4 55 15 60 8 3 15 18 15 33 0 41 40 83 79 83 17 0 31 5 31 10 0 6 9 10 19 10 15 0 21 -8 23 -32 2 -25 8 -34 26 -36 19 -3 22 1 22 31 0 30 5 37 35 51 19 9 35 21 35 26 0 6 11 10 25 10 14 0 25 5 25 10 0 6 13 10 29 10 17 0 33 5 36 10 3 6 18 10 33 10 15 0 35 10 47 23 11 13 30 26 43 29 20 6 22 2 22 -28 0 -19 -4 -34 -10 -34 -5 0 -12 -10 -15 -23 -4 -13 -17 -31 -31 -41 -27 -21 -33 -56 -9 -56 18 0 20 -20 3 -21 -7 -1 -23 0 -35 1 -14 1 -23 -4 -23 -13 0 -8 -7 -18 -16 -21 -25 -9 -14 -60 14 -64 21 -3 32 -22 12 -22 -5 0 -10 -11 -10 -24 0 -19 -4 -23 -19 -19 -11 3 -21 13 -24 24 -6 24 -45 25 -54 3 -4 -10 1 -22 10 -29 24 -17 21 -43 -5 -47 -18 -2 -24 -11 -26 -35 -2 -25 -8 -33 -23 -33 -26 0 -28 -67 -2 -72 15 -3 12 -9 -16 -36 -19 -17 -38 -32 -42 -32 -5 0 -9 24 -9 54 0 39 4 55 15 60 8 3 15 15 15 26 0 17 -6 20 -39 20 -22 0 -41 -5 -43 -11 -2 -7 -19 5 -38 25 -43 45 -86 50 -96 11 -3 -14 -10 -25 -15 -25 -12 0 -12 -33 0 -45 5 -6 12 -19 15 -30 5 -19 2 -21 -29 -17 -27 3 -35 1 -35 -12 0 -9 -7 -16 -16 -16 -11 0 -14 -8 -12 -32 2 -25 8 -34 26 -36 18 -3 22 1 22 22 0 23 4 26 35 26 l35 0 0 -65 c0 -59 -3 -68 -27 -90 -35 -31 -83 -34 -83 -5 0 15 -7 20 -25 20 -14 0 -25 -4 -25 -10 0 -5 -6 -10 -14 -10 -8 0 -16 -6 -19 -12 -3 -9 -11 -6 -24 10 -11 12 -25 22 -32 22 -6 0 -11 4 -11 9 0 5 -12 11 -27 13 -25 3 -26 4 -10 20 9 9 17 25 17 36 0 13 7 18 23 18 18 -1 23 5 25 32 2 24 -1 32 -12 32 -10 0 -16 9 -16 25 0 21 -5 25 -30 25 -25 0 -30 -4 -30 -25 0 -14 5 -25 10 -25 6 0 10 -9 10 -20 0 -11 -4 -20 -10 -20 -5 0 -10 -7 -10 -15 0 -9 -9 -15 -25 -15 -18 0 -25 -5 -25 -20 0 -16 -7 -20 -35 -20 -33 0 -35 -2 -35 -35 0 -33 2 -35 33 -35 21 0 38 7 47 20 8 11 20 20 27 20 20 0 15 -48 -7 -70 -24 -24 -80 -27 -80 -5 0 12 -13 15 -55 15 -30 0 -55 3 -55 6 0 3 20 25 45 48 35 34 45 51 45 75 0 49 -25 39 -109 -47 l-76 -78 -23 23 c-13 13 -22 35 -22 53 0 16 -4 30 -10 30 -5 0 -10 9 -10 20 0 11 -7 23 -15 26 -9 4 -15 19 -15 40 0 19 -4 34 -10 34 -21 0 -10 39 13 42 14 2 23 11 25 26 3 19 -1 22 -32 22 -33 0 -36 2 -36 30 0 18 -6 33 -15 36 -8 4 -15 17 -15 30 0 13 -4 24 -10 24 -5 0 -10 9 -10 20 0 13 7 20 19 20 11 0 28 11 39 25 11 14 30 25 42 25 18 0 21 5 18 33 -2 27 -8 33 -31 35 -22 3 -36 -5 -62 -32 -18 -20 -36 -36 -38 -36 -12 0 -13 53 -1 65 8 7 14 20 14 28 0 18 -55 67 -75 67 -22 0 -18 37 5 43 12 3 20 14 20 25 0 14 8 22 23 24 18 2 22 9 22 39 0 25 4 35 13 32 6 -3 12 -14 12 -24 0 -27 30 -36 46 -15 12 17 14 16 32 -2 17 -17 18 -22 6 -26 -8 -3 -21 -3 -29 0 -8 4 -17 -1 -21 -10 -4 -11 -19 -16 -45 -16 -35 0 -39 -2 -39 -26 0 -51 80 -100 96 -59 4 10 20 15 50 15 44 0 44 0 44 35 0 30 3 35 24 35 13 0 27 -7 30 -16 9 -25 60 -14 64 14 2 13 -3 25 -12 28 -9 3 -16 13 -16 21 0 18 -24 43 -43 43 -8 0 -23 11 -33 25 -18 24 -54 35 -54 16 0 -5 -11 -11 -25 -13 -21 -4 -25 -1 -25 18 0 21 -5 24 -34 24 -21 0 -36 6 -40 15 -3 9 -18 15 -36 15 -25 0 -30 -4 -30 -25 0 -16 -6 -25 -15 -25 -10 0 -15 -11 -15 -35 0 -24 5 -35 15 -35 8 0 15 -9 15 -20 0 -13 -7 -20 -20 -20 -11 0 -20 7 -20 15 0 9 -7 18 -15 21 -8 4 -15 14 -15 24 0 11 -4 22 -10 25 -5 3 -10 19 -10 35 0 16 -4 32 -10 35 -19 12 -11 45 10 45 15 0 20 7 20 25 0 14 -4 25 -9 25 -6 0 -11 15 -13 33 -2 24 -8 33 -25 35 -19 3 -23 -1 -23 -22 0 -14 -4 -26 -10 -26 -5 0 -10 16 -10 35 0 19 -4 35 -10 35 -5 0 -10 9 -10 20 0 11 -7 23 -15 26 -8 4 -15 15 -15 25 0 10 -4 19 -10 19 -5 0 -10 11 -10 25 0 25 1 25 89 25 50 0 93 5 96 10 3 6 35 10 71 10 50 0 64 3 64 15 0 12 13 15 60 15 33 0 60 4 60 10 0 6 37 10 90 10 53 0 90 -4 90 -10z m650 -35 c0 -14 -4 -25 -10 -25 -5 0 -10 11 -10 25 0 14 5 25 10 25 6 0 10 -11 10 -25z m-20 -60 c0 -8 -4 -15 -10 -15 -5 0 -10 7 -10 15 0 8 5 15 10 15 6 0 10 -7 10 -15z m-39 -83 c-6 -2 -11 -12 -11 -23 0 -10 -4 -19 -10 -19 -5 0 -10 -11 -10 -25 0 -14 -4 -25 -10 -25 -5 0 -10 11 -10 25 0 14 5 25 10 25 6 0 10 9 10 20 0 11 7 23 15 26 8 4 16 16 16 28 2 18 2 18 6 -4 3 -13 0 -26 -6 -28z m-541 -157 c0 -14 -4 -25 -10 -25 -5 0 -10 11 -10 25 0 14 5 25 10 25 6 0 10 -11 10 -25z m312 -327 c-7 -7 -12 -18 -12 -26 0 -20 -43 -57 -49 -41 -2 6 4 16 13 21 9 5 16 14 16 20 0 15 32 50 38 43 3 -3 0 -11 -6 -17z m428 -383 c0 -8 -4 -15 -9 -15 -5 0 -11 7 -15 15 -3 9 0 15 9 15 8 0 15 -7 15 -15z m-209 -47 c1 -7 0 -28 -1 -45 -1 -29 1 -33 24 -33 16 0 26 -6 26 -15 0 -8 -5 -15 -11 -15 -7 0 -20 -10 -30 -22 -11 -11 -22 -18 -26 -14 -5 4 0 12 10 17 23 13 21 29 -6 54 -29 24 -42 65 -21 65 8 0 14 5 14 10 0 15 20 12 21 -2z"/>
 <path d="M11820 3205 c0 -35 0 -35 45 -35 25 0 45 -5 45 -11 0 -6 10 -9 23 -7 30 4 35 44 8 69 -14 13 -35 19 -71 19 l-50 0 0 -35z"/>
 <path d="M11426 3204 c-9 -23 2 -34 35 -34 24 0 29 4 29 25 0 21 -5 25 -29 25 -17 0 -31 -6 -35 -16z"/>
 <path d="M11820 3075 c0 -16 -6 -25 -15 -25 -8 0 -15 -9 -15 -20 0 -16 7 -20 35 -20 28 0 35 4 35 19 0 10 7 21 15 25 8 3 15 15 15 26 0 16 -6 20 -35 20 -31 0 -35 -3 -35 -25z"/>
 <path d="M11903 3035 c-24 -27 -15 -45 22 -45 32 0 35 2 35 30 0 25 -4 30 -22 30 -13 -1 -29 -7 -35 -15z"/>
 <path d="M11700 2985 c0 -22 4 -25 35 -25 31 0 35 3 35 25 0 22 -4 25 -35 25 -31 0 -35 -3 -35 -25z"/>
 <path d="M9967 3143 c-4 -3 -7 -19 -7 -35 0 -23 4 -28 25 -28 22 0 25 4 25 35 0 27 -4 35 -18 35 -10 0 -22 -3 -25 -7z"/>
 <path d="M10242 2708 c2 -19 10 -24 42 -26 40 -3 59 10 49 35 -3 8 -22 13 -50 13 -40 0 -44 -2 -41 -22z"/>
 <path d="M10213 2485 c-7 -8 -13 -35 -13 -60 l0 -45 45 0 c41 0 45 2 45 25 0 14 -4 25 -9 25 -6 0 -11 15 -13 33 -3 36 -33 48 -55 22z"/>
 <path d="M10052 2428 c2 -19 9 -23 38 -23 29 0 36 4 38 23 3 20 -1 22 -38 22 -37 0 -41 -2 -38 -22z"/>
 <path d="M10080 2290 c0 -48 2 -51 23 -48 19 3 22 9 22 48 0 39 -3 45 -22 48 -21 3 -23 0 -23 -48z"/>
 <path d="M10220 1965 c0 -22 4 -25 35 -25 31 0 35 3 35 25 0 22 -4 25 -35 25 -31 0 -35 -3 -35 -25z"/>
 <path d="M10080 1940 c0 -12 -7 -20 -18 -20 -24 0 -52 -35 -52 -65 0 -18 5 -25 19 -25 13 0 21 -8 23 -22 2 -15 11 -24 26 -26 19 -3 22 1 22 31 0 20 -6 37 -12 40 -9 3 -4 13 15 30 36 34 37 77 2 77 -18 0 -25 -5 -25 -20z"/>
 <path d="M10290 1870 c0 -17 7 -20 45 -20 38 0 45 3 45 20 0 17 -7 20 -45 20 -38 0 -45 -3 -45 -20z"/>
 <path d="M10093 1765 c-7 -8 -13 -23 -13 -35 0 -16 6 -20 35 -20 33 0 35 2 35 35 0 30 -3 35 -22 35 -13 -1 -29 -7 -35 -15z"/>
 <path d="M10290 1745 c0 -8 -4 -15 -10 -15 -5 0 -10 -9 -10 -20 0 -16 7 -20 35 -20 31 0 35 -3 35 -25 0 -18 5 -25 20 -25 15 0 20 -7 20 -25 0 -22 4 -25 35 -25 31 0 35 3 35 25 0 20 -5 25 -25 25 -22 0 -25 4 -25 35 0 19 -4 35 -10 35 -5 0 -10 11 -10 25 0 23 -4 25 -45 25 -33 0 -45 -4 -45 -15z"/>
 <path d="M11213 1293 l2 -68 35 0 35 0 0 65 0 65 -37 3 -38 3 3 -68z"/>
 <path d="M10987 1263 c-4 -3 -7 -19 -7 -35 0 -23 4 -28 25 -28 22 0 25 4 25 35 0 27 -4 35 -18 35 -10 0 -22 -3 -25 -7z"/>
 <path d="M11100 1226 c0 -13 5 -26 12 -28 7 -3 11 -21 10 -46 -2 -31 1 -44 13 -48 34 -13 75 65 43 80 -10 5 -10 7 0 12 6 3 12 17 12 30 0 22 -4 24 -45 24 -41 0 -45 -2 -45 -24z"/>
 <path d="M10570 1015 c0 -21 5 -25 30 -25 25 0 30 4 30 25 0 21 -5 25 -30 25 -25 0 -30 -4 -30 -25z"/>
 <path d="M10340 920 c0 -49 1 -50 30 -50 29 0 30 1 30 50 0 49 -1 50 -30 50 -29 0 -30 -1 -30 -50z"/>
 <path d="M10750 866 c0 -20 -4 -36 -10 -36 -5 0 -10 -11 -10 -25 0 -21 5 -25 28 -25 17 0 38 10 51 24 19 20 20 25 8 38 -8 8 -16 23 -19 34 -2 11 -13 20 -26 22 -19 3 -22 -1 -22 -32z"/>
 <path d="M10844 835 c-9 -23 9 -37 42 -33 21 2 29 8 29 23 0 26 -62 35 -71 10z"/>
 <path d="M12650 3510 c0 -5 -8 -10 -18 -10 -11 0 -26 -8 -35 -18 -16 -17 -17 -131 -17 -1440 0 -1415 0 -1422 20 -1422 11 0 20 -4 20 -10 0 -7 150 -10 430 -10 l431 0 24 25 c14 13 25 29 25 35 0 5 5 10 11 10 16 0 39 26 39 45 0 19 23 45 39 45 6 0 11 9 11 19 0 10 16 35 35 54 19 19 35 41 35 49 0 7 9 20 20 28 11 8 20 25 20 37 0 13 5 23 11 23 17 0 39 27 39 47 0 10 9 25 20 33 11 8 20 22 20 31 0 9 11 25 25 35 14 10 25 27 25 36 0 10 5 18 10 18 6 0 10 7 10 15 0 8 7 15 15 15 8 0 15 9 15 20 0 10 20 38 45 62 25 24 45 49 45 57 0 8 16 27 35 44 19 16 35 37 35 46 0 9 9 23 20 31 11 8 20 24 20 36 0 12 7 24 15 28 8 3 15 14 15 23 0 10 9 25 20 33 11 8 20 25 20 37 0 13 6 23 13 23 8 0 20 11 27 25 7 14 17 25 22 25 4 0 8 7 8 15 0 9 11 26 25 39 14 13 25 31 25 40 0 9 5 16 10 16 6 0 10 7 10 15 0 8 5 15 11 15 15 0 39 26 39 42 1 15 24 48 34 48 3 0 6 -45 6 -100 0 -80 3 -102 15 -106 13 -5 15 -75 15 -546 0 -454 2 -542 14 -554 12 -12 85 -14 445 -14 393 0 433 2 451 17 19 17 20 29 20 370 0 229 4 353 10 353 7 0 10 312 10 915 0 603 -3 915 -10 915 -5 0 -10 11 -10 25 0 14 5 25 10 25 6 0 10 57 10 150 l0 150 -475 0 c-446 0 -475 -1 -475 -17 0 -10 -20 -39 -45 -65 -25 -27 -45 -57 -45 -68 0 -11 -5 -20 -11 -20 -17 0 -39 -27 -39 -49 0 -12 -4 -21 -10 -21 -5 0 -10 -9 -10 -20 0 -11 -5 -20 -11 -20 -16 0 -38 -31 -39 -52 0 -10 -4 -18 -10 -18 -5 0 -10 -11 -10 -25 0 -14 -5 -25 -11 -25 -17 0 -39 -27 -39 -49 0 -12 -4 -21 -10 -21 -5 0 -10 -7 -10 -15 0 -8 -20 -35 -45 -59 -25 -25 -45 -54 -45 -65 0 -12 -5 -21 -11 -21 -17 0 -39 -27 -39 -49 0 -12 -4 -21 -10 -21 -5 0 -10 -7 -10 -15 0 -9 -16 -31 -35 -49 -19 -19 -35 -44 -35 -55 0 -12 -5 -21 -10 -21 -16 0 -70 -55 -70 -71 0 -8 -9 -21 -20 -29 -11 -8 -20 -23 -20 -33 0 -11 -11 -28 -25 -39 -14 -11 -25 -28 -25 -39 0 -10 -4 -19 -10 -19 -5 0 -10 -7 -10 -15 0 -9 -16 -31 -35 -49 -19 -19 -35 -41 -35 -49 0 -9 -11 -24 -25 -35 -14 -11 -25 -26 -25 -34 0 -8 -9 -24 -20 -36 -11 -12 -20 -26 -20 -32 0 -5 -11 -10 -25 -10 -20 0 -25 5 -25 24 0 13 7 26 15 30 8 3 15 15 15 26 0 11 -7 20 -15 20 -12 0 -15 15 -15 79 0 61 3 80 15 85 9 3 15 18 15 36 0 20 -5 30 -15 30 -13 0 -15 23 -15 149 0 123 3 150 15 155 9 3 15 18 15 36 0 20 -5 30 -15 30 -9 0 -15 9 -15 25 0 16 6 25 15 25 12 0 15 13 15 55 0 42 -3 55 -15 55 -13 0 -15 33 -15 235 l0 235 -440 0 c-287 0 -440 -3 -440 -10z m2600 -455 c0 -20 -5 -25 -25 -25 -14 0 -25 -4 -25 -10 0 -5 -16 -10 -35 -10 -24 0 -35 -5 -35 -15 0 -10 -11 -15 -35 -15 -19 0 -35 -4 -35 -10 0 -5 -9 -10 -20 -10 -11 0 -20 5 -20 10 0 6 -40 10 -97 11 -54 1 -90 3 -80 6 9 2 17 9 17 14 0 5 9 9 20 9 11 0 20 5 20 10 0 6 15 10 34 10 19 0 36 5 38 10 2 6 32 11 67 12 42 1 65 6 68 15 4 9 26 13 74 13 67 0 69 -1 69 -25z m-1856 -80 c3 -9 0 -15 -9 -15 -8 0 -15 7 -15 15 0 8 4 15 9 15 5 0 11 -7 15 -15z m1110 -140 c4 -12 -3 -15 -34 -15 -29 0 -40 4 -40 15 0 10 10 15 34 15 21 0 36 -6 40 -15z m786 -156 c0 -12 -7 -19 -20 -19 -11 0 -20 5 -20 10 0 6 -7 10 -15 10 -8 0 -15 6 -15 13 0 9 11 12 35 9 26 -3 35 -9 35 -23z m-350 -169 c0 -5 11 -12 24 -16 28 -7 73 -51 63 -61 -4 -3 -7 -1 -7 5 0 16 -47 15 -54 0 -5 -10 -7 -10 -12 0 -3 6 -15 12 -26 12 -11 0 -29 11 -40 25 -11 14 -28 25 -39 25 -10 0 -19 5 -19 10 0 6 25 10 55 10 30 0 55 -4 55 -10z m-422 -130 c27 -27 57 -50 66 -50 9 0 16 -8 16 -20 0 -17 7 -20 43 -20 52 0 73 -24 50 -55 -13 -19 -15 -19 -24 -2 -7 11 -22 17 -49 17 -21 0 -42 5 -45 10 -3 6 -17 10 -31 10 -28 0 -84 49 -84 74 0 9 -7 16 -15 16 -20 0 -19 26 3 49 9 11 18 20 19 20 1 1 24 -21 51 -49z m-248 -30 c0 -18 6 -33 15 -36 8 -4 15 -17 15 -29 0 -13 6 -26 13 -28 6 -3 8 -6 2 -6 -19 -2 -65 46 -65 68 0 11 -4 21 -10 21 -5 0 -10 9 -10 20 0 13 7 20 20 20 16 0 20 -7 20 -30z m-110 -121 c0 -5 -11 -9 -25 -9 -14 0 -25 6 -25 14 0 9 8 12 25 8 14 -2 25 -8 25 -13z m624 -24 c3 -8 15 -15 26 -15 11 0 20 -4 20 -10 0 -5 9 -10 20 -10 11 0 20 -4 20 -10 0 -5 7 -10 15 -10 8 0 15 -4 15 -10 0 -5 9 -10 19 -10 10 0 21 -7 25 -15 4 -12 -2 -15 -28 -15 -21 0 -36 6 -40 15 -3 8 -13 15 -22 15 -9 0 -29 14 -44 30 -15 17 -33 30 -39 30 -6 0 -11 7 -11 15 0 8 4 15 9 15 5 0 11 -7 15 -15z m-1004 -20 c0 -8 -9 -15 -20 -15 -25 0 -26 17 -2 23 9 3 18 5 20 6 1 0 2 -6 2 -14z m829 -33 c7 -7 11 -15 8 -19 -6 -5 -57 41 -57 53 0 6 22 -9 49 -34z m-399 -42 c11 -11 20 -27 20 -35 0 -8 5 -15 10 -15 6 0 10 -7 10 -15 0 -8 -2 -15 -5 -15 -12 0 -62 58 -67 78 -8 27 6 28 32 2z m460 5 c0 -8 -4 -15 -9 -15 -5 0 -11 7 -15 15 -3 9 0 15 9 15 8 0 15 -7 15 -15z m-976 -120 c34 -33 46 -53 46 -75 0 -20 -5 -30 -15 -30 -8 0 -15 -9 -15 -20 0 -16 -7 -20 -30 -20 -16 0 -30 5 -30 10 0 6 -11 10 -25 10 -14 0 -25 5 -25 10 0 6 -9 10 -19 10 -43 0 -32 58 22 110 22 22 41 40 43 40 2 0 23 -20 48 -45z m-284 25 c0 -5 -9 -10 -20 -10 -11 0 -20 5 -20 10 0 6 9 10 20 10 11 0 20 -4 20 -10z m1230 -80 c0 -11 5 -20 11 -20 21 0 38 -35 39 -77 0 -24 5 -43 10 -43 6 0 10 -20 10 -45 0 -25 5 -45 10 -45 6 0 9 -12 9 -27 -2 -25 -2 -25 -6 -5 -3 13 -11 26 -19 29 -8 3 -14 19 -14 39 0 19 -4 34 -10 34 -5 0 -10 9 -10 19 0 11 -4 23 -10 26 -5 3 -10 15 -10 26 0 10 -7 19 -15 19 -10 0 -15 11 -15 35 0 19 -4 35 -10 35 -5 0 -10 5 -10 10 0 6 9 10 20 10 13 0 20 -7 20 -20z m-1410 -45 c0 -22 4 -25 35 -25 19 0 35 5 35 10 0 16 13 12 43 -14 33 -28 34 -34 5 -38 -15 -2 -24 -11 -26 -25 -2 -13 -5 -23 -7 -23 -3 0 -29 25 -59 55 -29 30 -59 55 -65 55 -6 0 -11 7 -11 15 0 9 9 15 25 15 20 0 25 -5 25 -25z m-140 -35 c0 -5 11 -10 25 -10 19 0 25 -5 25 -20 0 -27 43 -70 70 -70 15 0 20 -6 20 -25 0 -20 5 -25 25 -25 22 0 25 -4 25 -35 0 -33 2 -35 35 -35 29 0 35 -4 35 -21 0 -22 22 -49 39 -49 16 0 121 -108 121 -125 0 -8 7 -15 16 -15 9 0 31 -16 50 -35 18 -19 39 -35 48 -35 8 0 18 -4 21 -10 4 -6 -5 -10 -19 -10 -14 0 -26 5 -26 10 0 6 -16 10 -35 10 -24 0 -35 5 -35 15 0 8 -9 15 -19 15 -11 0 -23 5 -26 10 -8 13 -62 13 -71 -1 -4 -8 -9 -8 -17 0 -6 6 -29 11 -52 11 -31 0 -44 6 -59 25 -17 23 -25 25 -97 25 -46 0 -79 4 -79 10 0 6 -14 10 -31 10 -23 0 -40 10 -65 38 -18 20 -34 45 -34 55 0 9 -7 17 -15 17 -8 0 -15 6 -15 13 0 7 -9 19 -20 27 -11 8 -20 21 -20 30 0 8 -16 29 -35 45 -48 41 -45 55 10 55 38 0 45 3 45 20 0 11 5 20 10 20 6 0 10 7 10 15 0 9 9 15 25 15 14 0 25 5 25 10 0 6 9 10 20 10 11 0 20 5 20 10 0 6 11 10 25 10 14 0 25 -4 25 -10z m760 -45 c0 -19 -4 -35 -10 -35 -5 0 -10 16 -10 35 0 19 5 35 10 35 6 0 10 -16 10 -35z m310 -34 c0 -27 -25 -33 -49 -12 -29 25 -26 31 14 31 28 0 35 -4 35 -19z m747 4 c8 -9 13 -19 10 -22 -6 -5 -37 21 -37 31 0 10 11 6 27 -9z m63 -65 c0 -5 9 -10 20 -10 11 0 20 -4 20 -10 0 -5 -13 -10 -30 -10 -23 0 -30 4 -30 20 0 11 5 20 10 20 6 0 10 -4 10 -10z m-2214 -24 c8 -8 14 -18 14 -23 0 -5 9 -15 20 -23 11 -8 20 -22 20 -31 0 -9 11 -25 25 -35 36 -27 31 -34 -20 -34 -25 0 -45 5 -45 10 0 6 -16 10 -35 10 l-35 0 0 55 c0 73 24 103 56 71z m654 4 c0 -5 10 -10 21 -10 24 0 48 -26 49 -52 0 -9 8 -21 17 -27 10 -5 14 -13 10 -18 -5 -4 -13 0 -18 10 -6 9 -19 17 -29 17 -13 0 -20 7 -20 20 0 11 -3 20 -7 20 -12 1 -45 50 -33 50 5 0 10 -4 10 -10z m426 -77 c16 -22 17 -33 4 -33 -5 0 -10 7 -10 15 0 8 -4 15 -10 15 -5 0 -10 5 -10 10 0 15 11 12 26 -7z m924 -8 c0 -14 -4 -25 -10 -25 -5 0 -10 11 -10 25 0 14 5 25 10 25 6 0 10 -11 10 -25z m370 -15 c0 -5 5 -10 11 -10 19 0 39 -28 39 -55 0 -24 -19 -55 -34 -55 -17 0 -86 85 -86 106 0 21 5 24 35 24 19 0 35 -4 35 -10z m-140 -71 c0 -5 9 -9 20 -9 11 0 20 -6 20 -13 0 -18 34 -57 49 -57 6 0 11 -4 11 -10 0 -5 -5 -10 -11 -10 -6 0 -17 -7 -25 -15 -14 -13 -18 -13 -39 3 -14 9 -25 25 -25 35 0 10 -16 34 -34 52 -20 19 -30 35 -23 38 17 5 57 -4 57 -14z m-107 -93 c10 -8 17 -26 17 -45 0 -17 4 -31 9 -31 5 0 11 -11 13 -25 6 -30 7 -30 -20 -6 -15 13 -22 30 -22 56 0 24 -6 43 -17 51 -10 7 -13 13 -8 13 6 0 18 -6 28 -13z m367 -25 c0 -20 -17 -31 -37 -24 -9 4 -9 9 0 24 15 25 37 25 37 0z m-2309 -33 c9 -10 21 -18 28 -18 6 0 11 -16 11 -35 0 -19 5 -35 10 -35 6 0 10 -8 10 -18 0 -24 35 -56 54 -49 18 7 52 -22 57 -48 3 -12 14 -21 27 -23 12 -2 22 -8 22 -13 0 -5 16 -9 35 -9 l35 0 0 70 c0 68 -1 70 -25 70 -19 0 -25 5 -25 21 0 12 -10 30 -22 40 -11 11 -18 22 -13 27 4 4 10 1 12 -5 3 -7 20 -13 38 -13 20 0 35 -6 39 -15 3 -8 15 -15 26 -15 11 0 20 -4 20 -10 0 -5 -7 -10 -16 -10 -25 0 -13 -44 14 -48 15 -2 22 2 22 12 0 9 7 16 15 16 8 0 15 9 15 20 0 13 7 20 20 20 11 0 20 -4 20 -10 0 -5 20 -10 45 -10 25 0 45 -4 45 -10 0 -5 20 -10 44 -10 30 0 46 -5 50 -15 4 -11 21 -15 61 -15 l55 0 0 -71 c0 -49 -4 -75 -15 -85 -8 -9 -15 -29 -15 -45 0 -16 -4 -29 -10 -29 -5 0 -10 -9 -10 -19 0 -10 -16 -35 -35 -54 -19 -19 -35 -41 -35 -49 0 -7 -9 -20 -20 -28 -11 -8 -20 -25 -20 -37 0 -13 -5 -23 -10 -23 -19 0 -60 -48 -60 -70 0 -19 -6 -20 -130 -20 -80 0 -130 -4 -130 -10 0 -5 -16 -10 -35 -10 -30 0 -35 3 -35 23 0 12 -9 29 -20 37 -11 8 -20 22 -20 32 0 10 -7 18 -15 18 -8 0 -15 6 -15 13 0 7 -9 19 -20 27 -11 8 -20 25 -20 37 0 13 -4 23 -9 23 -12 0 -81 69 -81 81 0 5 -5 9 -11 9 -17 0 -39 27 -39 49 0 12 -4 21 -10 21 -5 0 -10 25 -10 55 0 59 7 67 30 35 8 -11 20 -20 27 -20 7 0 13 -3 13 -7 0 -11 46 -63 54 -63 9 0 36 -26 36 -35 0 -8 27 -35 35 -35 11 0 35 -28 35 -40 0 -7 13 -10 33 -8 31 3 32 5 35 51 2 37 0 47 -12 47 -11 0 -16 10 -16 31 0 24 -12 42 -55 84 -30 30 -55 60 -55 66 0 7 -37 48 -81 93 -69 68 -79 81 -63 87 26 10 66 -1 85 -23z m892 1 c4 -15 0 -19 -19 -19 -19 0 -24 5 -24 24 0 19 4 23 19 19 11 -3 21 -13 24 -24z m1338 -39 c5 0 9 -7 9 -15 0 -8 5 -15 10 -15 6 0 10 -13 10 -30 0 -16 -4 -30 -10 -30 -5 0 -10 -11 -10 -25 0 -14 -3 -25 -6 -25 -3 0 -26 20 -51 45 -24 25 -49 45 -54 45 -5 0 -9 11 -9 25 0 20 5 25 25 25 14 0 25 4 25 9 0 15 45 18 48 4 2 -7 8 -13 13 -13z m-539 -50 c7 -11 18 -20 25 -20 7 0 13 -7 13 -15 0 -8 8 -15 18 -15 11 0 27 -9 37 -20 10 -11 26 -20 37 -20 10 0 18 -2 18 -5 0 -11 -79 -85 -91 -85 -6 0 -22 -11 -35 -25 -13 -14 -30 -25 -39 -25 -9 0 -15 9 -15 25 0 14 -4 25 -10 25 -6 0 -10 40 -10 100 0 93 1 100 20 100 11 0 25 -9 32 -20z m-1882 -107 c0 -18 5 -33 10 -33 6 0 10 -4 10 -10 0 -5 -11 -10 -25 -10 -16 0 -25 6 -25 15 0 8 -4 15 -10 15 -5 0 -10 20 -10 45 l0 46 25 -18 c17 -13 24 -28 25 -50z m2255 32 c14 -13 25 -30 25 -37 0 -15 35 -48 50 -48 6 0 10 -4 10 -10 0 -5 -7 -10 -15 -10 -8 0 -15 5 -15 10 0 6 -16 10 -35 10 -33 0 -35 -2 -35 -35 0 -19 5 -35 10 -35 6 0 10 -4 10 -10 0 -5 -9 -10 -20 -10 -11 0 -20 -7 -20 -15 0 -9 -9 -15 -25 -15 -14 0 -25 -4 -25 -10 0 -5 -16 -10 -35 -10 -19 0 -35 -5 -35 -10 0 -15 -132 -8 -137 6 -2 6 31 45 73 87 60 60 84 77 106 77 15 0 28 4 28 9 0 5 10 11 23 13 17 2 23 11 25 36 2 17 5 32 8 32 3 0 16 -11 29 -25z m285 -75 c0 -93 -1 -100 -20 -100 -11 0 -20 5 -20 10 0 6 -7 10 -15 10 -8 0 -15 4 -15 9 0 5 7 11 15 15 8 3 15 15 15 26 0 11 5 20 10 20 6 0 10 25 10 55 0 30 5 55 10 55 6 0 10 -40 10 -100z m-2570 -210 c0 -5 7 -10 15 -10 11 0 15 -12 15 -45 l0 -45 45 0 c25 0 45 -3 45 -7 0 -11 46 -63 54 -63 15 0 36 -29 36 -49 0 -20 -6 -21 -89 -21 -82 0 -90 2 -115 26 -25 25 -26 32 -26 125 0 59 4 99 10 99 6 0 10 -4 10 -10z m2514 -5 c10 -7 16 -19 14 -25 -2 -7 -12 -4 -26 8 -35 31 -25 45 12 17z m-144 -25 c0 -20 -5 -30 -15 -30 -11 0 -15 -12 -15 -44 0 -30 -5 -46 -15 -50 -8 -3 -15 -12 -15 -21 0 -13 -3 -13 -20 -3 -11 7 -20 18 -20 25 0 28 -34 53 -72 53 -21 0 -38 5 -38 10 0 6 -11 10 -25 10 -14 0 -25 5 -25 10 0 6 25 10 55 10 40 0 57 4 61 15 4 10 20 15 50 15 24 0 44 4 44 9 0 5 10 12 23 14 12 2 23 5 25 6 1 0 2 -12 2 -29z m-464 -17 c7 -10 14 -26 14 -35 0 -14 9 -18 40 -18 22 0 40 5 40 10 0 19 36 10 54 -15 12 -16 29 -25 47 -25 22 0 29 -5 29 -20 0 -14 7 -20 21 -20 22 0 49 -22 49 -39 0 -6 5 -11 10 -11 6 0 10 -4 10 -10 0 -5 -24 -10 -53 -10 -44 0 -55 4 -71 25 -10 14 -27 25 -37 25 -14 0 -19 7 -19 30 0 30 -1 30 -54 30 -39 0 -55 4 -60 15 -3 8 -13 15 -21 15 -9 0 -23 7 -31 15 -12 12 -12 18 -2 35 16 24 17 25 34 3z m554 -51 c0 -10 5 -23 11 -29 14 -14 -25 -56 -59 -65 -32 -9 -30 31 3 56 14 10 25 27 25 37 0 11 5 19 10 19 6 0 10 -8 10 -18z m-580 -107 c0 -8 -4 -15 -10 -15 -5 0 -10 7 -10 15 0 8 5 15 10 15 6 0 10 -7 10 -15z"/>
 <path d="M650 3491 c0 -5 -11 -19 -25 -32 l-25 -24 0 -572 c0 -503 2 -573 15 -573 13 0 15 -98 15 -821 0 -698 2 -823 14 -835 12 -12 129 -14 775 -14 501 0 761 3 761 10 0 6 28 10 65 10 49 0 67 4 71 15 4 10 20 15 50 15 24 0 44 5 44 10 0 6 16 10 35 10 19 0 35 5 35 10 0 6 16 10 35 10 24 0 35 5 35 15 0 9 9 15 25 15 14 0 25 5 25 10 0 6 9 10 20 10 11 0 20 5 20 10 0 6 9 10 19 10 11 0 28 11 39 25 11 14 28 25 39 25 10 0 25 9 33 20 8 11 21 20 28 20 22 0 142 127 142 150 0 11 5 20 10 20 19 0 60 48 60 70 0 11 4 20 9 20 11 0 41 56 41 77 0 7 5 13 10 13 6 0 10 11 10 25 0 14 5 25 10 25 6 0 10 9 10 19 0 10 7 21 15 25 9 3 15 18 15 36 0 16 5 30 10 30 6 0 10 16 10 35 0 19 5 35 10 35 6 0 10 20 10 44 0 30 5 46 15 50 11 4 15 21 15 60 0 30 4 58 10 61 6 3 10 46 10 96 0 53 4 89 10 89 6 0 10 135 10 385 0 250 -4 385 -10 385 -5 0 -10 18 -10 39 0 22 -4 43 -10 46 -5 3 -10 20 -10 36 0 17 -6 32 -15 35 -8 4 -15 15 -15 25 0 10 -4 19 -10 19 -5 0 -10 11 -10 25 0 14 -4 25 -10 25 -5 0 -10 9 -10 20 0 11 -7 23 -15 26 -8 4 -15 14 -15 23 0 9 -9 23 -20 31 -11 8 -20 20 -20 27 0 7 -3 13 -7 13 -18 0 -63 49 -63 69 0 11 -4 21 -10 21 -5 0 -10 7 -10 16 0 19 -83 104 -102 104 -7 0 -20 9 -28 20 -8 11 -20 20 -27 20 -7 0 -13 5 -13 10 0 6 -7 10 -16 10 -9 0 -25 11 -36 25 -11 14 -28 25 -39 25 -10 0 -19 5 -19 10 0 6 -11 10 -25 10 -16 0 -25 6 -25 15 0 8 -9 15 -19 15 -11 0 -23 5 -26 10 -3 6 -15 10 -26 10 -10 0 -19 5 -19 10 0 6 -20 10 -44 10 -30 0 -46 5 -50 15 -4 11 -21 15 -60 15 -39 0 -55 4 -60 15 -4 11 -23 15 -80 15 -41 0 -78 5 -81 10 -8 13 -1525 14 -1525 1z m620 -101 c0 -5 11 -10 24 -10 13 0 26 -7 30 -15 4 -11 20 -15 56 -15 36 0 52 4 56 15 4 8 15 15 25 15 10 0 19 5 19 10 0 6 11 10 25 10 14 0 25 -4 25 -10 0 -5 7 -10 16 -10 9 0 25 -11 36 -25 11 -14 28 -25 39 -25 21 0 69 -42 69 -60 0 -5 5 -10 10 -10 14 0 60 -46 60 -60 0 -5 3 -10 8 -10 15 0 62 -48 62 -64 0 -19 23 -46 39 -46 6 0 11 -5 11 -10 0 -14 46 -60 60 -60 5 0 10 -10 10 -23 0 -12 9 -29 20 -37 11 -8 20 -25 20 -37 0 -13 5 -23 11 -23 13 0 39 -25 39 -38 0 -6 -10 -8 -22 -4 -24 6 -98 76 -98 92 0 6 -13 24 -29 40 -36 38 -81 42 -81 7 0 -12 9 -29 20 -37 11 -8 20 -23 20 -33 0 -9 7 -20 15 -23 8 -4 15 -14 15 -25 0 -17 -13 -18 -192 -21 -188 -3 -193 -2 -215 20 -12 12 -27 22 -33 22 -6 0 -21 11 -34 25 -13 14 -31 25 -40 25 -9 0 -16 5 -16 10 0 6 -11 10 -25 10 -14 0 -25 5 -25 10 0 6 -16 10 -35 10 -35 0 -35 0 -35 -45 0 -43 1 -45 29 -45 17 0 33 -4 36 -10 3 -5 15 -10 26 -10 10 0 19 -4 19 -10 0 -5 11 -10 25 -10 14 0 25 -5 25 -11 0 -6 21 -31 47 -57 28 -26 42 -47 35 -50 -7 -2 -12 -19 -12 -38 0 -19 -3 -34 -6 -34 -4 0 -33 27 -65 61 -48 50 -63 60 -86 57 -40 -4 -40 -32 1 -72 34 -33 47 -66 26 -66 -5 0 -10 5 -10 10 0 6 -9 10 -20 10 -11 0 -20 5 -20 10 0 6 -15 10 -34 10 -21 0 -36 6 -40 15 -3 8 -15 15 -26 15 -11 0 -20 5 -20 10 0 6 -9 10 -19 10 -11 0 -23 5 -26 10 -3 6 -19 10 -35 10 -15 0 -30 7 -34 15 -3 8 -17 15 -31 15 -14 0 -25 5 -25 10 0 6 -9 10 -20 10 -11 0 -20 5 -20 10 0 6 -11 10 -25 10 -16 0 -25 6 -25 15 0 8 -9 15 -20 15 -11 0 -20 5 -20 10 0 6 -11 10 -25 10 -14 0 -25 5 -25 10 0 6 -11 10 -25 10 -16 0 -25 6 -25 15 0 8 -9 15 -20 15 -19 0 -20 7 -20 135 0 113 -2 135 -15 135 -10 0 -15 11 -15 35 0 24 5 35 15 35 11 0 15 12 15 43 1 76 4 77 198 77 142 0 171 -2 176 -15 3 -10 19 -15 46 -15 29 0 40 4 40 15 0 9 9 15 25 15 14 0 25 5 25 10 0 6 9 10 20 10 11 0 20 -4 20 -10z m934 -25 c3 -10 19 -15 45 -15 22 0 43 -4 46 -10 3 -5 15 -10 26 -10 15 0 19 -7 19 -31 0 -34 19 -59 46 -59 21 0 64 -49 64 -72 0 -10 7 -18 15 -18 8 0 15 -7 15 -15 0 -8 5 -15 10 -15 6 0 10 -9 10 -20 0 -11 5 -20 10 -20 6 0 10 -8 10 -19 0 -10 11 -27 25 -37 14 -10 25 -29 25 -41 0 -13 5 -23 10 -23 6 0 10 -9 10 -20 0 -11 4 -20 9 -20 5 0 12 -11 15 -25 4 -14 11 -25 16 -25 6 0 10 -11 10 -25 0 -14 5 -25 10 -25 6 0 10 -6 10 -13 0 -21 30 -77 41 -77 5 0 9 -5 9 -11 0 -6 10 -18 21 -28 12 -9 20 -25 18 -36 -3 -14 -33 10 -130 108 -84 86 -133 127 -147 127 -13 0 -41 19 -66 45 -25 25 -50 45 -55 45 -6 0 -11 7 -11 15 0 10 -11 15 -35 15 -32 0 -35 -2 -35 -31 0 -30 19 -59 39 -59 6 0 11 -5 11 -11 0 -5 97 -108 215 -226 132 -133 215 -224 215 -236 0 -17 -2 -18 -17 -6 -10 8 -26 24 -36 37 -10 12 -26 22 -35 22 -10 0 -26 11 -36 25 -10 14 -25 25 -33 25 -8 0 -34 20 -57 45 -24 25 -50 45 -57 45 -14 1 -69 44 -69 54 0 9 -51 56 -60 56 -6 0 -10 10 -10 23 0 12 -9 29 -20 37 -11 8 -20 22 -20 31 0 9 -11 25 -25 35 -14 10 -25 29 -25 41 0 13 -5 23 -11 23 -16 0 -39 26 -39 45 0 19 -23 45 -39 45 -6 0 -11 10 -11 23 0 12 -9 29 -20 37 -11 8 -20 21 -20 28 0 8 -18 32 -40 54 -23 21 -45 50 -50 63 -6 15 -17 25 -30 25 -17 0 -20 -7 -20 -41 0 -39 17 -69 39 -69 6 0 11 -9 11 -20 0 -13 -5 -18 -15 -14 -8 4 -15 10 -15 16 0 15 -27 38 -46 38 -21 0 -64 49 -64 73 0 9 -5 17 -11 17 -11 0 -39 25 -39 35 0 8 -27 35 -35 35 -10 0 -35 28 -35 39 0 8 70 11 219 11 185 0 220 -2 225 -15z m326 -95 c22 -22 40 -49 40 -60 0 -11 5 -20 10 -20 6 0 10 -9 10 -20 0 -11 5 -20 10 -20 6 0 10 -6 10 -14 0 -8 7 -22 16 -31 9 -9 14 -19 11 -22 -8 -8 -37 23 -37 39 0 7 -16 27 -35 43 -19 17 -35 37 -35 46 0 26 -57 69 -90 69 -20 0 -30 5 -30 15 0 11 11 15 40 15 33 0 47 -7 80 -40z m-484 -184 c16 -17 19 -36 4 -36 -5 0 -10 7 -10 15 0 8 -4 15 -10 15 -5 0 -10 5 -10 10 0 14 9 12 26 -4z m-1306 -326 c0 -5 10 -10 23 -10 12 0 31 -11 41 -25 10 -14 27 -25 37 -25 11 0 19 -4 19 -10 0 -5 9 -10 20 -10 11 0 20 -4 20 -10 0 -5 11 -10 25 -10 16 0 25 -6 25 -15 0 -8 9 -15 19 -15 11 0 23 -4 26 -10 3 -5 13 -10 21 -10 19 0 44 -24 44 -42 0 -7 16 -27 35 -43 19 -17 35 -37 35 -45 0 -8 10 -24 23 -35 12 -11 31 -30 41 -43 17 -19 17 -22 3 -22 -10 0 -17 7 -17 15 0 8 -9 15 -19 15 -11 0 -23 5 -26 10 -3 6 -19 10 -36 10 -16 0 -29 5 -29 10 0 6 -22 10 -50 10 l-50 0 0 -35 c0 -31 3 -35 25 -35 14 0 25 -4 25 -10 0 -5 16 -10 35 -10 19 0 35 -5 35 -10 0 -6 10 -15 23 -20 17 -7 10 -9 -34 -9 -42 -1 -60 4 -77 19 -12 11 -26 20 -32 20 -6 0 -41 32 -79 70 -51 51 -76 70 -95 70 -46 0 -42 -27 13 -81 28 -27 51 -58 51 -69 0 -10 6 -21 13 -23 6 -3 2 -6 -11 -6 -12 -1 -25 -8 -28 -16 -8 -19 -74 -21 -74 -2 0 7 -9 19 -20 27 -16 11 -20 26 -20 67 0 29 5 53 10 53 6 0 10 27 10 60 0 33 -4 60 -10 60 -5 0 -10 25 -10 55 0 42 -3 55 -15 55 -9 0 -15 9 -15 25 0 16 6 25 15 25 8 0 15 9 15 20 0 11 5 20 10 20 6 0 10 -4 10 -10z m980 -20 c0 -6 40 -10 99 -10 79 0 100 -3 105 -15 3 -9 18 -15 35 -15 16 0 33 -4 36 -10 3 -5 15 -10 26 -10 10 0 19 -4 19 -10 0 -5 7 -10 15 -10 8 0 39 -25 70 -55 30 -31 55 -62 55 -70 0 -8 5 -15 10 -15 6 0 10 -11 10 -25 0 -14 5 -25 10 -25 6 0 10 -9 10 -20 0 -11 7 -20 15 -20 10 0 15 -11 15 -35 0 -19 5 -35 10 -35 6 0 10 -42 10 -105 0 -63 4 -105 10 -105 6 0 10 -38 10 -95 0 -57 -4 -95 -10 -95 -6 0 -10 -40 -10 -100 0 -60 -4 -100 -10 -100 -5 0 -10 -15 -10 -34 0 -21 -6 -36 -15 -40 -9 -3 -15 -18 -15 -35 0 -16 -4 -33 -10 -36 -5 -3 -10 -15 -10 -26 0 -10 -4 -19 -10 -19 -5 0 -10 -7 -10 -15 0 -19 -106 -125 -125 -125 -8 0 -15 -4 -15 -10 0 -5 -9 -10 -19 -10 -11 0 -23 -4 -26 -10 -3 -5 -24 -10 -46 -10 -26 0 -42 -5 -45 -15 -5 -12 -32 -15 -160 -15 -141 0 -156 2 -174 20 -19 19 -20 33 -20 500 0 420 2 480 15 480 11 0 15 12 15 44 0 25 5 48 10 51 6 4 10 62 10 141 l0 134 45 0 c25 0 45 5 45 10 0 6 7 10 15 10 8 0 15 -4 15 -10z m-540 -140 c0 -5 11 -10 25 -10 14 0 25 -4 25 -9 0 -13 59 -41 87 -41 12 0 23 -4 23 -10 0 -5 11 -10 24 -10 13 0 26 -7 30 -15 3 -9 18 -15 36 -15 l30 0 0 -89 c0 -83 -1 -89 -19 -84 -11 3 -28 13 -40 24 -11 10 -27 19 -36 19 -8 0 -15 5 -15 10 0 6 -7 10 -15 10 -8 0 -15 4 -15 10 0 12 -48 60 -60 60 -6 0 -10 4 -10 10 0 12 -48 60 -60 60 -6 0 -10 10 -10 23 0 12 -9 29 -20 37 -11 8 -20 18 -20 22 0 4 9 8 20 8 11 0 20 -4 20 -10z m1720 -251 c0 -7 10 -20 22 -30 11 -11 19 -22 16 -25 -5 -4 -68 52 -68 62 0 2 7 4 15 4 8 0 15 -5 15 -11z m-158 -83 c43 -44 44 -46 20 -46 -20 0 -52 33 -52 55 0 8 -3 15 -8 15 -4 0 -13 10 -21 23 -13 21 -13 21 4 7 11 -8 36 -32 57 -54z m-1512 -36 c0 -5 7 -10 16 -10 8 0 21 -6 28 -12 16 -17 27 -58 15 -58 -5 0 -9 5 -9 10 0 6 -11 10 -25 10 -14 0 -25 5 -25 10 0 6 -11 10 -25 10 -16 0 -25 6 -25 15 0 8 7 15 15 15 8 0 15 5 15 10 0 6 5 10 10 10 6 0 10 -4 10 -10z m1670 -90 c0 -5 9 -10 20 -10 11 0 20 -7 20 -15 0 -21 -26 -19 -50 5 -24 24 -25 30 -5 30 8 0 15 -4 15 -10z m-2160 -21 c0 -14 25 -39 39 -39 6 0 11 -14 11 -31 0 -25 13 -44 70 -99 70 -68 79 -80 59 -80 -11 0 -39 25 -39 35 0 13 -29 35 -47 35 -10 0 -27 11 -37 25 -10 14 -25 25 -33 25 -29 0 -43 28 -43 84 0 31 5 56 10 56 6 0 10 -5 10 -11z m1924 -39 c9 0 16 -4 16 -10 0 -5 7 -10 15 -10 8 0 15 -6 15 -13 0 -7 9 -19 20 -27 11 -8 20 -19 20 -24 0 -6 -5 -5 -12 2 -7 7 -20 12 -30 12 -10 0 -18 5 -18 10 0 6 -11 10 -25 10 -16 0 -25 6 -25 15 0 8 -4 15 -10 15 -5 0 -10 9 -10 20 0 11 -4 20 -10 20 -5 0 -10 8 -10 18 0 13 5 11 24 -10 13 -16 31 -28 40 -28z m86 -255 c0 -9 7 -18 15 -21 22 -9 18 -24 -5 -24 -13 0 -20 7 -20 20 0 11 -7 23 -15 26 -8 4 -15 15 -15 25 0 10 -4 19 -10 19 -5 0 -10 7 -10 16 0 12 8 8 30 -14 17 -18 30 -39 30 -47z m150 -76 c0 -16 27 -39 46 -39 22 0 60 -43 43 -49 -6 -2 -16 4 -21 13 -5 9 -18 16 -28 16 -11 0 -20 5 -20 10 0 6 -11 10 -25 10 -20 0 -25 5 -25 25 0 16 6 25 15 25 8 0 15 -5 15 -11z m-2160 -29 c0 -5 10 -10 21 -10 18 0 59 -33 59 -47 0 -1 -13 -3 -30 -3 -18 0 -30 5 -30 13 0 7 -9 19 -20 27 -21 15 -26 30 -10 30 6 0 10 -4 10 -10z m0 -120 c0 -5 10 -10 23 -10 12 0 31 -11 41 -25 10 -14 26 -25 35 -25 9 0 23 -9 31 -20 8 -11 25 -20 37 -20 13 0 23 -5 23 -11 0 -15 26 -39 44 -39 8 0 18 -4 21 -10 14 -22 -38 -8 -57 15 -15 20 -28 25 -64 25 -24 0 -44 5 -44 10 0 6 -16 10 -35 10 -24 0 -35 5 -35 15 0 8 -4 15 -10 15 -5 0 -10 9 -10 20 0 11 -4 20 -10 20 -5 0 -10 9 -10 20 0 11 5 20 10 20 6 0 10 -4 10 -10z m34 -195 c13 -14 31 -25 40 -25 9 0 16 -4 16 -10 0 -5 10 -10 23 -10 12 0 31 -11 41 -25 10 -14 26 -25 35 -25 9 0 23 -9 31 -20 8 -11 25 -20 37 -20 13 0 23 -4 23 -9 0 -11 56 -41 77 -41 7 0 13 -4 13 -10 0 -5 11 -10 25 -10 14 0 25 -4 25 -9 0 -13 59 -41 87 -41 12 0 23 -4 23 -10 0 -5 11 -10 25 -10 14 0 25 -4 25 -10 0 -8 28 -24 85 -46 19 -7 19 -8 -4 -12 -15 -2 -28 2 -33 12 -5 9 -22 16 -38 16 -16 0 -32 5 -35 10 -3 6 -19 10 -36 10 -16 0 -29 5 -29 10 0 6 -11 10 -25 10 -16 0 -25 6 -25 15 0 8 -9 15 -19 15 -11 0 -23 5 -26 10 -3 6 -19 10 -36 10 -16 0 -29 5 -29 10 0 6 -11 10 -24 10 -13 0 -26 7 -30 15 -3 8 -15 15 -26 15 -11 0 -20 5 -20 10 0 6 -16 10 -35 10 -19 0 -35 5 -35 10 0 6 -9 10 -20 10 -11 0 -20 5 -20 10 0 6 -15 10 -34 10 -21 0 -36 6 -40 15 -3 8 -13 15 -21 15 -28 0 -45 27 -45 69 0 49 19 54 54 16z m1927 -27 c10 -10 25 -18 34 -18 8 0 15 -4 15 -10 0 -5 -9 -10 -20 -10 -11 0 -20 5 -20 10 0 6 -9 10 -19 10 -10 0 -21 7 -25 15 -3 8 -16 15 -28 16 -21 1 -21 1 5 11 15 5 28 15 28 21 1 7 4 3 6 -8 3 -11 13 -28 24 -37z m219 -28 c0 -5 11 -10 25 -10 15 0 25 -6 25 -14 0 -8 6 -17 13 -20 10 -5 10 -7 0 -12 -7 -3 -13 -14 -13 -24 0 -26 -25 -32 -49 -11 -15 13 -21 30 -21 60 0 22 5 41 10 41 6 0 10 -4 10 -10z m-846 -85 c10 -14 26 -25 35 -25 9 0 23 -9 31 -20 8 -11 20 -20 27 -20 7 0 13 -5 13 -11 0 -15 26 -39 44 -39 19 0 120 -100 110 -109 -4 -3 -9 0 -11 7 -3 8 -25 12 -63 12 -42 0 -59 4 -64 15 -3 8 -15 15 -26 15 -12 0 -20 7 -20 16 0 21 -122 144 -143 144 -10 0 -17 8 -17 20 0 31 60 28 84 -5z m429 -185 c9 0 19 -4 22 -10 3 -5 19 -10 36 -10 16 0 29 -4 29 -10 0 -5 11 -10 25 -10 16 0 25 -6 25 -15 0 -8 9 -15 19 -15 11 0 23 -4 26 -10 4 -6 -12 -10 -39 -10 -25 0 -46 5 -46 10 0 6 -27 10 -60 10 -38 0 -60 4 -60 11 0 7 -9 20 -21 30 -17 15 -18 20 -7 38 11 19 14 19 24 6 6 -8 18 -15 27 -15z m277 -55 c0 -8 -7 -15 -15 -15 -8 0 -15 -4 -15 -10 0 -5 -4 -10 -9 -10 -4 0 -6 11 -3 25 5 27 42 36 42 10z m-2036 -140 c3 -9 0 -15 -9 -15 -8 0 -15 7 -15 15 0 8 4 15 9 15 5 0 11 -7 15 -15z m1829 3 c8 -24 -5 -38 -33 -38 -16 0 -32 5 -35 10 -3 6 -14 10 -25 10 -10 0 -20 7 -24 15 -4 12 5 15 53 15 39 0 61 -4 64 -12z"/>
 <path d="M1530 3219 c0 -22 6 -47 14 -55 16 -16 76 -19 76 -4 0 6 7 10 16 10 11 0 14 8 12 33 -2 24 -8 33 -25 35 -13 2 -23 8 -23 13 0 5 -16 9 -35 9 -34 0 -35 -1 -35 -41z"/>
 <path d="M2180 3080 c0 -27 43 -70 70 -70 16 0 20 6 20 31 0 17 -6 37 -14 45 -8 8 -28 14 -45 14 -25 0 -31 -4 -31 -20z"/>
 <path d="M4520 2931 c0 -496 -2 -570 -15 -575 -9 -3 -15 -18 -15 -36 0 -16 -4 -30 -10 -30 -5 0 -10 -9 -10 -20 0 -11 -4 -20 -10 -20 -5 0 -10 -7 -10 -15 0 -8 -4 -15 -10 -15 -5 0 -10 -11 -10 -25 0 -14 -5 -25 -11 -25 -16 0 -39 -26 -39 -45 0 -19 -23 -45 -39 -45 -6 0 -11 -10 -11 -23 0 -12 -9 -29 -20 -37 -11 -8 -20 -25 -20 -37 0 -13 -5 -23 -10 -23 -18 0 -60 -48 -60 -68 0 -10 -11 -25 -25 -32 -16 -8 -25 -22 -25 -37 0 -13 -4 -23 -10 -23 -5 0 -10 -9 -10 -20 0 -11 -4 -20 -10 -20 -5 0 -10 -7 -10 -15 0 -8 -7 -15 -15 -15 -8 0 -15 -9 -15 -20 0 -11 -4 -20 -10 -20 -5 0 -10 -7 -10 -15 0 -8 -7 -15 -15 -15 -8 0 -15 -9 -15 -19 0 -10 -11 -29 -25 -42 -13 -13 -25 -29 -25 -35 0 -6 -9 -19 -20 -29 -11 -10 -20 -25 -20 -34 0 -9 -11 -25 -25 -35 -14 -10 -25 -27 -25 -37 0 -10 -9 -24 -20 -31 -11 -7 -20 -21 -20 -31 0 -11 -11 -28 -25 -39 -14 -11 -25 -27 -25 -36 0 -10 -11 -26 -25 -36 -14 -10 -25 -26 -25 -35 0 -9 -9 -23 -20 -31 -11 -8 -20 -23 -20 -33 0 -11 -11 -28 -25 -39 -14 -11 -25 -27 -25 -37 0 -9 -9 -23 -20 -31 -11 -8 -20 -23 -20 -33 0 -11 -11 -28 -25 -39 -14 -11 -25 -27 -25 -36 0 -10 -11 -26 -25 -36 -14 -10 -25 -26 -25 -35 0 -9 -9 -23 -20 -31 -11 -8 -20 -24 -20 -36 0 -12 -10 -26 -25 -34 -23 -12 -25 -19 -25 -77 0 -43 5 -69 14 -79 12 -12 93 -14 506 -14 l491 0 39 39 c22 22 40 47 40 55 0 9 5 16 10 16 6 0 10 11 10 25 0 16 6 25 15 25 8 0 15 8 15 18 0 10 9 28 20 40 11 12 20 26 20 32 0 6 11 21 25 34 14 13 25 30 25 39 0 8 7 17 15 21 8 3 15 14 15 23 0 10 9 25 20 33 11 8 20 25 20 37 0 13 4 23 10 23 5 0 17 16 26 35 9 19 20 35 25 35 5 0 9 9 9 19 0 10 7 21 15 25 8 3 15 14 15 25 0 11 5 23 10 26 6 3 10 15 10 26 0 10 5 19 10 19 6 0 10 9 10 19 0 11 4 21 8 23 9 3 62 107 62 121 0 9 25 37 34 37 3 0 6 -13 6 -29 0 -16 6 -31 15 -35 8 -3 15 -15 15 -26 0 -11 5 -20 10 -20 6 0 10 -9 10 -19 0 -11 5 -23 10 -26 6 -3 10 -15 10 -26 0 -10 5 -19 10 -19 6 0 10 -8 10 -19 0 -10 11 -27 25 -37 14 -10 25 -26 25 -36 0 -9 5 -20 10 -23 6 -3 10 -14 10 -25 0 -10 7 -20 15 -24 8 -3 15 -14 15 -23 0 -10 9 -25 20 -33 11 -8 20 -22 20 -31 0 -9 11 -25 25 -35 14 -10 25 -29 25 -41 0 -13 5 -23 11 -23 17 0 39 -27 39 -49 0 -12 5 -21 10 -21 6 0 10 -9 10 -20 0 -11 7 -23 15 -26 8 -4 15 -15 15 -25 0 -10 5 -19 10 -19 6 0 10 -9 10 -21 0 -19 21 -49 35 -49 13 0 35 -29 35 -45 0 -45 -1 -45 545 -45 434 0 519 2 531 14 28 29 6 166 -27 166 -5 0 -9 10 -9 23 0 12 -9 29 -20 37 -11 8 -20 23 -20 33 0 9 -7 20 -15 23 -8 4 -15 13 -15 20 0 8 -9 24 -20 36 -11 12 -20 30 -20 40 0 10 -7 18 -15 18 -8 0 -15 7 -15 15 0 8 -4 15 -10 15 -5 0 -10 9 -10 19 0 11 -11 28 -25 39 -14 11 -25 28 -25 39 0 10 -9 24 -20 31 -11 7 -20 18 -20 26 0 22 -22 58 -57 95 -18 19 -33 40 -33 48 0 7 -7 16 -15 19 -8 4 -15 15 -15 26 0 11 -31 50 -70 89 -38 38 -70 74 -70 79 0 6 -13 24 -30 42 -16 17 -30 39 -30 49 0 11 -4 19 -10 19 -15 0 -50 38 -50 55 0 8 -4 15 -10 15 -5 0 -10 7 -10 15 0 8 -4 15 -10 15 -5 0 -10 9 -10 20 0 11 -7 20 -15 20 -8 0 -15 7 -15 15 0 8 -4 15 -10 15 -5 0 -10 8 -10 18 0 10 -9 24 -20 32 -11 8 -20 22 -20 31 0 9 -11 25 -25 35 -14 10 -25 27 -25 37 0 20 -22 47 -39 47 -6 0 -11 10 -11 23 0 12 -9 29 -20 37 -11 8 -20 25 -20 37 0 13 -5 23 -11 23 -16 0 -39 27 -39 46 0 9 -11 27 -25 40 -14 13 -25 30 -25 39 0 8 -4 15 -10 15 -5 0 -10 16 -10 35 0 19 -4 35 -10 35 -6 0 -11 201 -12 568 l-3 567 -472 3 -473 2 0 -569z m134 184 c19 -19 44 -35 55 -35 16 0 21 -6 21 -25 0 -22 -4 -25 -35 -25 -19 0 -35 5 -35 10 0 6 -7 10 -15 10 -8 0 -15 7 -15 15 0 8 -4 15 -10 15 -5 0 -10 16 -10 35 0 19 2 35 5 35 3 0 21 -16 39 -35z m206 -182 c-1 -15 -27 -43 -40 -43 -13 0 -39 28 -40 43 0 4 18 7 40 7 22 0 40 -3 40 -7z m-230 -53 c0 -5 5 -10 11 -10 17 0 39 -27 39 -49 0 -13 -6 -21 -17 -21 -9 0 -25 -7 -35 -17 -17 -15 -18 -14 -18 45 0 35 4 62 10 62 6 0 10 -4 10 -10z m950 -955 c0 -9 11 -26 25 -39 33 -31 32 -36 -10 -36 -35 0 -35 0 -35 45 0 25 5 45 10 45 6 0 10 -7 10 -15z m-172 -542 c12 -12 13 -18 4 -21 -6 -2 -12 -12 -12 -23 0 -10 -4 -19 -10 -19 -5 0 -10 -11 -10 -25 0 -16 -6 -25 -15 -25 -8 0 -15 -9 -15 -19 0 -11 -4 -23 -10 -26 -5 -3 -10 -22 -10 -41 0 -31 3 -35 22 -32 13 2 24 11 27 23 2 11 12 27 22 36 11 9 19 26 19 38 0 11 6 21 13 21 7 0 19 9 27 20 8 11 18 20 22 20 16 0 7 -36 -12 -50 -11 -8 -20 -25 -20 -37 0 -14 -6 -23 -15 -23 -8 0 -15 -9 -15 -19 0 -11 -4 -23 -10 -26 -5 -3 -10 -15 -10 -26 0 -10 -4 -19 -10 -19 -5 0 -10 -7 -10 -15 0 -9 -6 -12 -15 -9 -8 4 -15 13 -15 22 0 8 -16 30 -35 49 -19 19 -35 40 -35 48 0 8 -4 16 -9 19 -15 10 -19 78 -4 83 7 3 13 11 13 19 0 8 6 14 13 14 7 0 19 9 27 20 8 11 22 20 32 20 9 0 20 5 23 10 8 14 14 13 33 -7z m362 -3 c0 -11 -4 -20 -10 -20 -5 0 -10 9 -10 20 0 11 5 20 10 20 6 0 10 -9 10 -20z m-1320 -55 c0 -8 5 -15 10 -15 6 0 10 -18 10 -39 0 -31 -7 -46 -36 -75 -20 -20 -45 -36 -55 -36 -10 0 -19 -7 -19 -15 0 -8 -5 -15 -10 -15 -6 0 -22 -11 -35 -25 -33 -32 -36 -95 -5 -95 11 0 20 7 20 15 0 8 7 15 15 15 8 0 15 5 15 10 0 6 7 10 16 10 9 0 36 21 60 46 39 40 47 44 62 33 9 -7 19 -15 21 -16 2 -2 -8 -12 -22 -24 -15 -11 -27 -29 -27 -40 0 -10 -4 -19 -10 -19 -5 0 -10 -5 -10 -11 0 -11 -25 -39 -35 -39 -10 0 -35 -28 -35 -39 0 -6 -4 -11 -10 -11 -5 0 -10 -9 -10 -19 0 -10 -7 -21 -15 -25 -8 -3 -15 -15 -15 -26 0 -15 7 -20 24 -20 18 0 25 -6 28 -22 2 -15 11 -24 26 -26 24 -4 31 -22 7 -22 -8 0 -15 -9 -15 -20 0 -13 -7 -20 -20 -20 -11 0 -20 -7 -20 -15 0 -13 -33 -15 -235 -15 -202 0 -235 2 -235 15 0 8 5 15 10 15 19 0 60 48 60 70 0 11 5 20 10 20 14 0 60 46 60 60 0 5 5 10 10 10 14 0 60 46 60 60 0 5 5 10 10 10 12 0 60 45 60 55 0 9 27 35 36 35 8 0 54 52 54 63 0 4 7 7 15 7 8 0 15 9 15 19 0 10 25 44 55 74 30 30 55 60 55 66 0 13 31 51 42 51 5 0 8 -7 8 -15z m300 5 c0 -5 -4 -10 -10 -10 -5 0 -10 -7 -10 -15 0 -8 -7 -15 -15 -15 -8 0 -15 -7 -15 -16 0 -20 -21 -41 -46 -46 -11 -2 -20 -13 -22 -26 -4 -26 -22 -30 -22 -4 0 10 -5 23 -12 30 -9 9 -7 12 10 12 13 0 22 6 22 15 0 8 6 15 13 15 6 1 26 16 42 35 29 32 65 46 65 25z m905 -30 c3 -5 15 -10 26 -10 12 0 19 -7 19 -20 0 -11 -4 -20 -10 -20 -5 0 -10 -11 -10 -25 0 -14 -5 -25 -11 -25 -20 0 -39 -29 -39 -59 0 -17 -4 -31 -10 -31 -5 0 -10 -11 -10 -25 0 -16 -6 -25 -15 -25 -10 0 -15 -11 -15 -35 0 -19 -4 -35 -10 -35 -5 0 -10 -11 -10 -25 0 -14 -4 -25 -10 -25 -5 0 -10 -16 -10 -35 0 -31 3 -35 26 -35 19 0 41 15 75 50 50 52 59 58 59 39 0 -14 -25 -39 -39 -39 -6 0 -11 -11 -11 -25 0 -14 -4 -25 -10 -25 -5 0 -10 -9 -10 -20 0 -11 -4 -20 -10 -20 -5 0 -10 -7 -10 -15 0 -8 -7 -15 -15 -15 -10 0 -15 -10 -15 -30 0 -23 4 -30 20 -30 23 0 80 50 80 71 0 8 16 27 35 44 19 16 35 38 35 47 0 16 11 18 88 18 81 0 89 -2 106 -25 l19 -25 178 0 179 0 0 -35 c0 -19 -4 -35 -10 -35 -5 0 -10 -13 -10 -29 0 -17 -4 -33 -10 -36 -5 -3 -10 -15 -10 -26 0 -20 -34 -27 -45 -9 -3 6 -30 10 -60 10 -38 0 -54 4 -59 15 -3 8 -15 15 -26 15 -11 0 -20 5 -20 10 0 6 -6 10 -13 10 -21 0 -77 -30 -77 -41 0 -14 -30 -11 -46 6 -20 20 -83 20 -90 0 -5 -12 -30 -15 -135 -15 -83 0 -129 4 -129 10 0 14 -46 60 -60 60 -5 0 -10 20 -10 45 0 25 -4 45 -10 45 -5 0 -10 11 -10 25 0 14 -4 25 -10 25 -5 0 -10 9 -10 19 0 11 -11 28 -25 39 -25 20 -35 62 -14 62 15 0 39 26 39 42 0 8 9 24 20 36 11 12 20 26 20 32 0 6 11 21 25 34 14 13 25 31 25 40 0 9 5 16 10 16 6 0 10 10 10 21 0 36 58 66 75 39z m244 -31 c-9 -5 -15 -4 -18 2 -2 6 3 15 10 20 9 5 15 4 18 -2 2 -6 -3 -15 -10 -20z m151 1 c0 -15 -7 -20 -25 -20 -14 0 -25 5 -25 10 0 6 7 10 15 10 8 0 15 5 15 10 0 6 5 10 10 10 6 0 10 -9 10 -20z m-300 -245 c0 -8 -6 -15 -14 -15 -8 0 -16 -6 -19 -12 -2 -8 -8 -9 -13 -4 -5 5 -4 11 4 13 6 3 12 11 12 19 0 8 7 14 15 14 8 0 15 -7 15 -15z m-1766 -46 c-83 -90 -218 -219 -222 -214 -3 3 0 11 6 17 7 7 12 18 12 24 0 16 116 134 131 134 6 0 27 16 46 35 43 43 68 47 27 4z m556 -24 c0 -8 -4 -15 -10 -15 -5 0 -10 -9 -10 -19 0 -10 -7 -21 -15 -25 -12 -4 -15 3 -15 34 0 36 3 40 25 40 16 0 25 -6 25 -15z m-880 -192 c0 -10 -7 -26 -14 -35 -16 -22 -56 -24 -56 -3 0 8 6 15 13 15 7 0 19 9 27 20 18 25 30 26 30 3z"/>
 <path d="M6852 3480 c-9 -15 -12 -324 -12 -1425 l0 -1406 25 -24 c24 -25 27 -25 195 -25 107 0 170 4 170 10 0 6 99 10 276 10 225 0 278 3 290 14 12 12 14 163 14 1026 0 863 2 1014 14 1026 12 12 112 14 643 14 617 0 629 0 646 20 15 18 17 55 17 400 l0 380 -1133 0 c-1119 0 -1132 0 -1145 -20z m328 -90 c0 -5 -4 -10 -10 -10 -5 0 -10 -9 -10 -21 0 -33 -25 -49 -74 -49 -42 0 -46 -2 -46 -25 0 -16 6 -25 15 -25 8 0 15 -4 15 -10 0 -5 -11 -10 -25 -10 -14 0 -25 -4 -25 -9 0 -5 -16 -11 -35 -13 l-35 -4 0 93 0 93 115 0 c70 0 115 -4 115 -10z m610 0 c0 -6 -62 -10 -165 -10 -103 0 -165 4 -165 10 0 6 62 10 165 10 103 0 165 -4 165 -10z m435 0 c3 -5 -1 -10 -9 -10 -9 0 -16 -7 -16 -15 0 -10 -11 -15 -35 -15 -24 0 -35 5 -35 15 0 8 -4 15 -10 15 -5 0 -10 5 -10 10 0 6 24 10 54 10 30 0 58 -4 61 -10z m135 0 c0 -5 7 -10 15 -10 8 0 15 -7 15 -16 0 -25 44 -13 48 14 5 35 22 26 22 -13 l0 -35 -95 0 -95 0 0 35 c0 35 0 35 45 35 25 0 45 -4 45 -10z m212 -22 c3 -30 6 -33 38 -33 33 0 35 2 35 33 0 31 1 32 42 32 24 0 43 -4 43 -10 0 -5 11 -10 25 -10 14 0 25 5 25 10 0 6 30 10 70 10 40 0 70 -4 70 -10 0 -5 11 -10 25 -10 14 0 25 5 25 10 0 14 32 12 53 -4 14 -11 17 -30 17 -125 l0 -111 -25 0 c-22 0 -25 4 -25 35 0 41 -24 48 -53 15 -24 -28 -22 -50 6 -50 17 0 22 -6 22 -25 0 -14 -6 -25 -12 -25 -7 0 -13 -11 -13 -25 0 -22 -4 -25 -33 -25 l-33 0 3 55 c2 43 0 57 -12 61 -9 4 -15 19 -15 41 0 30 -3 34 -22 31 -24 -3 -25 -7 -27 -140 -1 -41 -4 -48 -21 -48 -13 0 -20 -7 -20 -20 0 -11 5 -20 10 -20 6 0 10 -11 10 -25 0 -18 5 -25 19 -25 10 0 21 -9 24 -20 3 -12 14 -20 25 -20 11 0 23 -7 26 -16 4 -10 16 -14 38 -12 29 3 33 7 36 36 2 24 8 32 23 32 12 0 19 -7 19 -20 0 -15 7 -20 25 -20 21 0 25 -5 25 -30 0 -49 -26 -70 -86 -70 -37 0 -54 4 -58 15 -3 8 -15 15 -26 15 -11 0 -20 5 -20 10 0 6 -9 10 -20 10 -11 0 -20 5 -20 10 0 6 -11 10 -24 10 -13 0 -26 7 -30 15 -3 8 -15 15 -26 15 -11 0 -20 5 -20 10 0 6 -8 10 -18 10 -10 0 -24 9 -32 20 -8 11 -22 20 -32 20 -9 0 -32 16 -51 35 -19 19 -39 35 -46 35 -6 0 -38 27 -70 60 -33 33 -66 60 -75 60 -9 0 -16 5 -16 10 0 6 -9 10 -20 10 -17 0 -80 51 -80 65 0 3 50 5 111 5 111 0 112 0 140 30 22 23 29 39 29 70 0 48 17 54 22 8z m-1246 -36 c-11 -2 -31 -15 -43 -28 -12 -14 -33 -24 -48 -24 -24 0 -25 2 -11 15 8 8 23 15 33 15 10 0 32 16 48 35 29 34 30 35 36 13 4 -18 0 -24 -15 -26z m324 -25 c0 -13 -40 -47 -55 -47 -20 0 -65 -48 -65 -68 0 -34 78 -60 95 -32 3 6 13 10 21 10 18 0 44 24 44 39 0 6 7 11 15 11 8 0 15 5 15 10 0 6 7 10 16 10 8 0 23 8 32 17 16 16 17 15 20 -10 3 -23 8 -27 38 -27 31 0 34 2 34 30 0 28 -3 30 -37 31 -24 1 -29 3 -15 6 12 2 22 9 22 14 0 5 47 9 105 9 63 0 105 -4 105 -10 0 -5 20 -10 45 -10 33 0 45 -4 45 -15 0 -8 7 -15 15 -15 8 0 15 -4 15 -10 0 -5 9 -10 20 -10 14 0 20 -7 20 -21 0 -22 25 -48 48 -49 18 0 98 -83 84 -88 -7 -2 -12 -15 -12 -28 0 -23 3 -24 70 -24 40 0 70 -4 70 -10 0 -5 7 -10 16 -10 8 0 30 -16 48 -35 19 -19 41 -35 50 -35 9 0 16 -4 16 -10 0 -5 7 -10 15 -10 8 0 15 -5 15 -11 0 -16 26 -39 45 -39 19 0 45 -23 45 -39 0 -6 -20 -11 -45 -11 -25 0 -45 -4 -45 -10 0 -6 -33 -10 -80 -10 -47 0 -80 4 -80 10 0 6 8 10 18 10 20 0 52 33 52 55 0 10 -11 15 -35 15 -30 0 -35 -3 -35 -24 0 -20 -4 -22 -27 -18 -18 3 -30 -1 -40 -13 -12 -18 -14 -18 -26 -1 -19 26 -71 18 -75 -11 -6 -39 -22 -25 -22 18 0 35 -6 47 -35 75 -19 18 -35 40 -35 48 0 9 -9 16 -20 16 -11 0 -20 -4 -20 -10 0 -5 -7 -10 -15 -10 -10 0 -15 -10 -15 -30 0 -18 6 -33 15 -36 8 -4 15 -10 15 -15 0 -5 -7 -9 -15 -9 -9 0 -15 -9 -15 -25 0 -23 -4 -25 -45 -25 -25 0 -45 -4 -45 -10 0 -6 -65 -11 -162 -12 l-163 -3 -3 -67 c-2 -38 -7 -68 -12 -68 -14 0 -12 -34 3 -49 10 -11 10 -14 0 -18 -15 -6 -17 -39 -3 -48 6 -3 10 -42 10 -86 0 -46 -4 -79 -10 -79 -14 0 -13 -37 2 -46 7 -5 4 -10 -10 -15 -28 -11 -29 -49 -2 -56 24 -6 28 -57 5 -79 -13 -13 -18 -11 -45 16 -16 17 -30 35 -30 40 0 6 -6 10 -12 10 -7 0 0 12 15 25 21 18 27 33 25 53 -2 22 -8 28 -35 30 -18 2 -33 7 -33 13 0 5 -18 9 -40 9 -56 0 -100 44 -100 100 0 38 -1 40 -31 40 -32 0 -58 22 -59 49 0 7 -11 22 -25 33 -14 11 -25 28 -25 39 0 10 -4 19 -10 19 -5 0 -10 8 -10 18 0 10 -5 23 -11 29 -9 9 3 26 45 67 31 31 56 59 56 62 0 4 16 20 35 37 19 16 35 37 35 46 0 9 11 25 25 35 14 10 25 27 25 37 0 11 5 19 10 19 6 0 10 45 10 115 0 70 -4 115 -10 115 -14 0 -12 38 3 55 8 10 34 14 80 15 37 0 67 -2 67 -3z m-240 -133 c0 -66 -13 -94 -42 -94 -7 0 -27 -16 -43 -35 -17 -19 -37 -35 -45 -35 -8 0 -24 -12 -37 -26 -20 -24 -24 -25 -38 -10 -9 9 -12 16 -6 16 6 0 11 12 11 28 1 30 21 62 39 62 6 0 11 5 11 10 0 6 7 10 16 10 8 0 33 18 55 40 28 28 39 48 39 70 0 23 4 30 20 30 18 0 20 -7 20 -66z m-410 -9 c0 -3 -9 -14 -20 -25 -26 -26 -30 -25 -30 5 0 20 5 25 25 25 14 0 25 -2 25 -5z m90 -75 c0 -5 -4 -10 -10 -10 -5 0 -10 -11 -10 -25 0 -16 -6 -25 -15 -25 -8 0 -15 -9 -15 -20 0 -11 7 -20 15 -20 10 0 15 -11 15 -35 0 -19 5 -35 10 -35 20 0 9 -46 -15 -64 -14 -10 -25 -27 -25 -37 0 -13 -9 -19 -32 -21 -25 -2 -33 -8 -33 -23 0 -15 8 -21 33 -23 22 -2 32 1 32 11 0 10 8 13 25 9 14 -2 25 -6 25 -9 0 -8 -28 -33 -38 -33 -5 0 -15 -11 -22 -25 -8 -16 -22 -25 -37 -25 -13 0 -23 -4 -23 -10 0 -5 -4 -10 -10 -10 -6 0 -10 68 -10 185 l0 185 23 0 c15 0 29 9 37 25 8 16 22 25 37 25 13 0 23 5 23 10 0 6 5 10 10 10 6 0 10 -4 10 -10z m1950 -60 c0 -47 -2 -50 -25 -50 -16 0 -25 6 -25 15 0 8 5 15 10 15 6 0 10 16 10 35 0 24 5 35 15 35 11 0 15 -12 15 -50z m-1860 -416 c0 -9 11 -25 25 -36 14 -11 25 -27 25 -37 0 -9 9 -23 20 -31 11 -8 20 -22 20 -32 0 -9 7 -21 16 -26 13 -7 11 -13 -16 -40 -17 -18 -36 -32 -42 -32 -16 0 -48 -31 -48 -47 0 -7 -7 -13 -15 -13 -9 0 -18 -7 -21 -15 -4 -8 -11 -15 -18 -15 -6 0 -18 -9 -26 -20 -8 -11 -21 -20 -30 -20 -17 0 -50 -34 -50 -50 0 -6 -4 -10 -10 -10 -5 0 -10 -8 -10 -17 0 -10 -12 -26 -25 -36 l-25 -18 0 57 c0 49 4 60 26 79 31 26 29 59 -4 63 -20 3 -22 9 -22 64 0 57 2 63 35 91 19 16 35 36 35 44 0 17 24 43 40 43 7 0 28 16 47 35 37 37 73 46 73 19z m190 -274 c0 -17 -6 -20 -37 -19 -25 1 -30 3 -15 6 13 3 26 11 29 19 8 21 23 17 23 -6z m-70 -155 l0 -55 35 0 35 0 0 55 c0 30 5 55 10 55 6 0 10 -4 10 -10 0 -5 18 -10 41 -10 33 0 46 -6 73 -35 19 -19 41 -35 50 -35 9 0 16 -4 16 -10 0 -5 7 -10 15 -10 8 0 15 -7 15 -15 0 -8 -7 -15 -15 -15 -8 0 -15 -4 -15 -10 0 -5 -7 -10 -16 -10 -9 0 -27 -11 -40 -25 -13 -14 -29 -25 -36 -25 -8 0 -20 -9 -28 -20 -8 -11 -25 -20 -37 -20 -13 0 -23 -5 -23 -10 0 -6 -20 -30 -45 -53 -25 -24 -45 -48 -45 -55 0 -6 -14 -24 -31 -41 -24 -24 -39 -31 -70 -31 -21 0 -39 -4 -39 -10 0 -5 -20 -10 -45 -10 -25 0 -45 -4 -45 -10 0 -5 -20 -10 -45 -10 -31 0 -47 -5 -51 -15 -11 -27 -24 -16 -24 20 0 19 5 35 10 35 6 0 10 11 10 25 0 14 -4 25 -10 25 -6 0 -10 37 -10 90 l0 90 35 0 c24 0 35 5 35 15 0 9 9 15 21 15 25 0 49 22 49 45 0 16 22 45 35 45 3 0 21 16 39 35 19 19 41 35 50 35 9 0 16 5 16 10 0 6 16 10 35 10 l35 0 0 -55z m398 -172 c12 -12 13 -18 4 -21 -14 -4 -16 -52 -2 -52 6 0 10 -30 10 -70 0 -63 -2 -70 -20 -70 -11 0 -20 -4 -20 -10 0 -6 -37 -10 -90 -10 -53 0 -90 4 -90 10 0 6 -17 10 -38 10 -38 0 -38 1 -34 32 3 18 13 41 23 52 11 11 19 23 19 28 0 4 10 8 23 8 12 0 29 9 37 20 8 11 23 20 33 20 9 0 20 7 23 15 4 8 14 15 24 15 11 0 22 5 25 10 3 6 15 10 26 10 10 0 19 5 19 10 0 14 9 12 28 -7z m-328 -268 c0 -10 10 -15 33 -15 21 0 38 -7 47 -20 13 -18 26 -20 117 -20 85 0 103 -3 103 -15 0 -12 -13 -15 -60 -15 -33 0 -60 -4 -60 -10 0 -5 -25 -10 -55 -10 -30 0 -55 -4 -55 -10 0 -5 -20 -10 -45 -10 -31 0 -47 -5 -51 -15 -4 -10 -20 -15 -50 -15 -24 0 -44 -4 -44 -10 0 -5 -9 -10 -20 -10 -11 0 -20 3 -20 6 0 11 29 34 42 34 18 0 48 36 48 56 0 9 11 25 25 36 14 11 25 28 25 39 0 10 5 19 10 19 6 0 10 -7 10 -15z m-230 -114 c0 -5 -7 -11 -15 -15 -8 -3 -15 -12 -15 -21 0 -20 -76 -95 -95 -95 -8 0 -15 -4 -15 -10 0 -5 -11 -10 -25 -10 -23 0 -25 4 -25 45 0 41 2 45 25 45 14 0 25 5 25 10 0 6 13 10 29 10 17 0 33 5 36 10 3 6 15 10 26 10 10 0 19 7 19 15 0 8 7 15 15 15 8 0 15 -4 15 -9z m570 -113 c-1 -64 -17 -88 -59 -88 -17 0 -31 -4 -31 -10 0 -5 -13 -10 -29 -10 -17 0 -33 -4 -36 -10 -3 -5 -26 -10 -51 -10 -24 0 -44 5 -44 10 0 6 -16 10 -35 10 -19 0 -35 5 -35 10 0 6 -13 10 -29 10 -33 0 -49 15 -26 24 8 3 15 13 15 21 0 28 27 45 69 45 23 0 41 4 41 9 0 5 16 11 35 13 31 4 35 1 35 -19 0 -18 6 -23 25 -23 14 0 25 5 25 10 0 6 9 10 19 10 11 0 21 6 23 12 3 7 18 11 36 10 23 -2 32 2 32 13 0 8 5 15 10 15 6 0 10 -24 10 -52z m-436 -123 c42 -43 60 -55 85 -55 23 0 31 -5 31 -17 1 -45 70 -77 70 -33 0 18 7 20 79 20 44 0 83 -4 86 -10 3 -5 24 -10 46 -10 l39 0 0 -65 0 -65 -63 0 c-35 0 -68 5 -74 11 -17 17 -87 7 -91 -14 -4 -22 36 -56 67 -57 13 0 22 -2 19 -5 -3 -3 -38 -6 -77 -6 -53 0 -74 -4 -78 -15 -3 -8 -19 -14 -40 -14 -34 0 -35 -1 -31 -35 4 -31 1 -35 -19 -35 -21 0 -23 4 -23 60 l0 60 -35 0 -35 0 0 -60 c0 -33 4 -60 10 -60 6 0 10 -11 10 -25 0 -25 -1 -25 -80 -25 -64 0 -80 3 -80 15 0 11 12 15 51 15 l50 0 -3 33 c-3 29 -6 32 -40 35 -29 2 -38 0 -38 -12 0 -33 -19 -14 -22 22 -3 32 -7 37 -31 40 -18 2 -29 -2 -33 -12 -8 -20 -54 -21 -54 -2 0 9 8 12 25 8 15 -2 25 0 25 7 0 6 6 11 13 11 27 0 57 37 57 69 l0 31 -70 0 c-40 0 -70 4 -70 10 0 6 5 10 10 10 6 0 10 16 10 35 0 19 -4 35 -10 35 -5 0 -10 16 -10 35 0 31 3 35 25 35 14 0 25 5 25 10 0 6 11 10 23 10 28 0 87 28 87 41 0 5 11 9 25 9 14 0 25 5 25 10 0 6 13 10 30 10 23 0 42 -13 84 -55z m-304 -265 c0 -11 -4 -20 -10 -20 -5 0 -10 9 -10 20 0 11 5 20 10 20 6 0 10 -9 10 -20z m740 -85 c0 -19 -4 -35 -10 -35 -5 0 -10 -9 -10 -20 0 -19 -7 -20 -150 -20 -143 0 -150 1 -150 20 0 18 7 20 80 20 58 0 81 4 87 14 4 8 22 16 38 18 21 2 30 8 29 21 -2 14 6 17 42 17 44 0 44 0 44 -35z m-670 -20 c0 -8 -4 -15 -10 -15 -5 0 -10 7 -10 15 0 8 5 15 10 15 6 0 10 -7 10 -15z m560 -235 c0 -5 9 -10 20 -10 11 0 20 -4 20 -10 0 -5 11 -10 25 -10 28 0 30 -7 11 -32 -12 -16 -36 -18 -244 -18 l-231 0 -31 30 c-16 16 -30 32 -30 35 0 3 14 5 30 5 23 0 30 -4 30 -20 0 -18 7 -20 85 -20 50 0 85 4 85 10 0 6 16 10 35 10 19 0 35 5 35 10 0 6 16 10 35 10 19 0 35 5 35 10 0 6 20 10 45 10 25 0 45 -4 45 -10z"/>
 <path d="M8850 3285 c0 -25 4 -45 9 -45 5 0 11 -10 13 -22 2 -15 11 -24 26 -26 20 -3 22 1 22 42 0 25 -4 46 -10 46 -5 0 -10 11 -10 25 0 20 -5 25 -25 25 -23 0 -25 -4 -25 -45z"/>
 <path d="M8627 3214 c-4 -4 -7 -27 -7 -51 0 -40 2 -44 23 -41 19 3 22 9 22 48 0 32 -4 46 -15 48 -9 1 -19 0 -23 -4z"/>
 <path d="M7997 3213 c-4 -3 -7 -19 -7 -35 0 -25 3 -28 35 -28 33 0 35 2 35 35 0 32 -3 35 -28 35 -16 0 -32 -3 -35 -7z"/>
 <path d="M7790 2995 c0 -32 2 -35 30 -35 39 0 50 25 22 51 -33 30 -52 25 -52 -16z"/>
 <path d="M8040 2975 c0 -33 2 -35 35 -35 33 0 35 2 35 35 0 33 -2 35 -35 35 -33 0 -35 -2 -35 -35z"/>
 <path d="M8403 2965 c-24 -27 -15 -45 22 -45 32 0 35 2 35 30 0 25 -4 30 -22 30 -13 -1 -29 -7 -35 -15z"/>
 <path d="M7477 2830 c-9 -11 -17 -34 -17 -50 0 -28 3 -30 36 -30 l35 0 -3 47 c-3 54 -22 66 -51 33z"/>
 <path d="M7532 2658 c2 -18 10 -23 33 -23 23 0 31 5 33 23 3 19 -1 22 -33 22 -32 0 -36 -3 -33 -22z"/>
 <path d="M7464 2606 c-3 -8 -4 -25 -2 -38 2 -18 10 -24 36 -26 33 -3 33 -3 30 35 -3 33 -7 38 -31 41 -17 2 -29 -2 -33 -12z"/>
 <path d="M7140 2494 c0 -23 3 -25 33 -22 24 2 33 8 35 26 3 19 -1 22 -32 22 -32 0 -36 -3 -36 -26z"/>
 <path d="M7344 2045 c-8 -20 4 -35 27 -35 14 0 19 7 19 25 0 18 -5 25 -20 25 -11 0 -23 -7 -26 -15z"/>
 <path d="M7504 1906 c-10 -26 1 -51 24 -54 12 -2 22 -8 22 -13 0 -17 40 -9 63 12 21 19 21 21 5 33 -10 7 -18 18 -18 25 0 17 -89 14 -96 -3z"/>
 <path d="M7042 1258 c2 -25 8 -34 26 -36 19 -3 22 1 22 32 0 32 -3 36 -26 36 -23 0 -25 -3 -22 -32z"/>
 <path d="M7117 1174 c-4 -4 -7 -16 -7 -26 0 -16 6 -19 38 -16 29 2 37 7 37 23 0 15 -8 21 -30 23 -17 2 -34 0 -38 -4z"/>
 </g>

</svg>